<svg width="42" height="16" viewBox="0 0 42 16" fill="none" xmlns="http://www.w3.org/2000/svg">
<path d="M41.7071 8.45222C42.0976 8.0617 42.0976 7.42853 41.7071 7.03801L35.3431 0.674049C34.9526 0.283525 34.3195 0.283525 33.9289 0.674049C33.5384 1.06457 33.5384 1.69774 33.9289 2.08826L39.5858 7.74512L33.9289 13.402C33.5384 13.7925 33.5384 14.4257 33.9289 14.8162C34.3195 15.2067 34.9526 15.2067 35.3431 14.8162L41.7071 8.45222ZM0 8.74512H2.05V6.74512H0V8.74512ZM6.15 8.74512H10.25V6.74512H6.15V8.74512ZM14.35 8.74512H18.45V6.74512H14.35V8.74512ZM22.55 8.74512H26.65V6.74512H22.55V8.74512ZM30.75 8.74512H34.85V6.74512H30.75V8.74512ZM38.95 8.74512H41V6.74512H38.95V8.74512ZM41.7071 8.45222C42.0976 8.0617 42.0976 7.42853 41.7071 7.03801L35.3431 0.674049C34.9526 0.283525 34.3195 0.283525 33.9289 0.674049C33.5384 1.06457 33.5384 1.69774 33.9289 2.08826L39.5858 7.74512L33.9289 13.402C33.5384 13.7925 33.5384 14.4257 33.9289 14.8162C34.3195 15.2067 34.9526 15.2067 35.3431 14.8162L41.7071 8.45222ZM0 8.74512H2.05V6.74512H0V8.74512ZM6.15 8.74512H10.25V6.74512H6.15V8.74512ZM14.35 8.74512H18.45V6.74512H14.35V8.74512ZM22.55 8.74512H26.65V6.74512H22.55V8.74512ZM30.75 8.74512H34.85V6.74512H30.75V8.74512ZM38.95 8.74512H41V6.74512H38.95V8.74512Z" fill="#8BBACE"/>
</svg>
