<svg width="57" height="54" viewBox="0 0 57 54" fill="none" xmlns="http://www.w3.org/2000/svg">
<path d="M15.4169 6.26698C15.4169 6.09183 15.486 5.92386 15.6091 5.80002C15.7322 5.67617 15.8992 5.60659 16.0732 5.60659H16.4261C16.6002 5.60659 16.7671 5.67617 16.8902 5.80002C17.0133 5.92386 17.0825 6.09183 17.0825 6.26698C17.0825 6.44212 17.0133 6.61009 16.8902 6.73394C16.7671 6.85778 16.6002 6.92736 16.4261 6.92736H16.0732C15.8992 6.92736 15.7322 6.85778 15.6091 6.73394C15.486 6.61009 15.4169 6.44212 15.4169 6.26698ZM18.9516 6.92736H25.0514V8.1312C25.0514 8.30634 25.1205 8.47431 25.2436 8.59816C25.3667 8.722 25.5337 8.79158 25.7077 8.79158C25.8818 8.79158 26.0488 8.722 26.1719 8.59816C26.2949 8.47431 26.3641 8.30634 26.3641 8.1312V6.26698C26.3641 6.18025 26.3471 6.09438 26.3141 6.01426C26.2811 5.93414 26.2328 5.86134 26.1719 5.80002C26.1109 5.73869 26.0386 5.69005 25.9589 5.65686C25.8793 5.62367 25.7939 5.60659 25.7077 5.60659H18.9509C18.7769 5.60659 18.6099 5.67617 18.4868 5.80002C18.3637 5.92386 18.2946 6.09183 18.2946 6.26698C18.2946 6.44212 18.3637 6.61009 18.4868 6.73394C18.6099 6.85778 18.7769 6.92736 18.9509 6.92736H18.9516ZM11.5312 15.4039V14.8732C11.5312 14.698 11.462 14.53 11.3389 14.4062C11.2158 14.2824 11.0489 14.2128 10.8748 14.2128C10.7008 14.2128 10.5338 14.2824 10.4107 14.4062C10.2876 14.53 10.2185 14.698 10.2185 14.8732V15.4039C9.83239 15.483 9.48278 15.6874 9.22333 15.9858C8.96389 16.2841 8.80896 16.6599 8.78233 17.0555V18.1817C8.78233 19.554 10.0198 19.7782 10.7586 19.9115C11.6552 20.0738 11.6552 20.1635 11.6552 20.3416V21.4685C11.6552 21.6357 11.3439 21.8884 10.8724 21.8884C10.4009 21.8884 10.0896 21.6357 10.0896 21.4685C10.0923 21.3801 10.0773 21.2921 10.0455 21.2097C10.0137 21.1273 9.96583 21.0521 9.90465 20.9887C9.84347 20.9252 9.77025 20.8748 9.68933 20.8403C9.6084 20.8059 9.52143 20.7881 9.43357 20.7881C9.3457 20.7881 9.25873 20.8059 9.17781 20.8403C9.09689 20.8748 9.02366 20.9252 8.96248 20.9887C8.9013 21.0521 8.8534 21.1273 8.82163 21.2097C8.78986 21.2921 8.77486 21.3801 8.77752 21.4685C8.80377 21.8652 8.95911 22.2422 9.21955 22.5413C9.47998 22.8403 9.83103 23.0448 10.2185 23.1231V23.6538C10.2185 23.829 10.2876 23.997 10.4107 24.1208C10.5338 24.2446 10.7008 24.3142 10.8748 24.3142C11.0489 24.3142 11.2158 24.2446 11.3389 24.1208C11.462 23.997 11.5312 23.829 11.5312 23.6538V23.1231C11.9173 23.044 12.2669 22.8396 12.5263 22.5412C12.7858 22.2429 12.9407 21.8671 12.9673 21.4715V20.3447C12.9673 18.973 11.7305 18.7488 10.991 18.6149C10.0944 18.4526 10.0944 18.3635 10.0944 18.1848V17.0555C10.0944 16.8882 10.4057 16.6356 10.8772 16.6356C11.3487 16.6356 11.66 16.8882 11.66 17.0555C11.6652 17.2271 11.7366 17.3899 11.8591 17.5094C11.9815 17.629 12.1455 17.6958 12.3161 17.6958C12.4867 17.6958 12.6506 17.629 12.7731 17.5094C12.8956 17.3899 12.967 17.2271 12.9721 17.0555C12.9452 16.6593 12.7896 16.283 12.5292 15.9845C12.2689 15.6861 11.9182 15.482 11.5312 15.4039ZM15.3567 23.2443H20.8363C21.0104 23.2443 21.1773 23.1747 21.3004 23.0509C21.4235 22.927 21.4927 22.759 21.4927 22.5839C21.4927 22.4088 21.4235 22.2408 21.3004 22.1169C21.1773 21.9931 21.0104 21.9235 20.8363 21.9235H15.3567C15.1826 21.9235 15.0157 21.9931 14.8926 22.1169C14.7695 22.2408 14.7003 22.4088 14.7003 22.5839C14.7003 22.759 14.7695 22.927 14.8926 23.0509C15.0157 23.1747 15.1826 23.2443 15.3567 23.2443ZM22.7487 23.2443H23.2305C23.4045 23.2443 23.5715 23.1747 23.6946 23.0509C23.8177 22.927 23.8868 22.759 23.8868 22.5839C23.8868 22.4088 23.8177 22.2408 23.6946 22.1169C23.5715 21.9931 23.4045 21.9235 23.2305 21.9235H22.7487C22.5747 21.9235 22.4077 21.9931 22.2846 22.1169C22.1615 22.2408 22.0924 22.4088 22.0924 22.5839C22.0924 22.759 22.1615 22.927 22.2846 23.0509C22.4077 23.1747 22.5747 23.2443 22.7487 23.2443ZM15.3567 20.3174H18.5391C18.6253 20.3174 18.7106 20.3003 18.7902 20.2671C18.8699 20.2339 18.9422 20.1853 19.0032 20.124C19.0641 20.0626 19.1125 19.9898 19.1455 19.9097C19.1784 19.8296 19.1954 19.7437 19.1954 19.657C19.1954 19.5703 19.1784 19.4844 19.1455 19.4043C19.1125 19.3242 19.0641 19.2514 19.0032 19.19C18.9422 19.1287 18.8699 19.0801 18.7902 19.0469C18.7106 19.0137 18.6253 18.9966 18.5391 18.9966H15.3567C15.2705 18.9966 15.1851 19.0137 15.1055 19.0469C15.0259 19.0801 14.9535 19.1287 14.8926 19.19C14.8316 19.2514 14.7833 19.3242 14.7503 19.4043C14.7173 19.4844 14.7003 19.5703 14.7003 19.657C14.7003 19.7437 14.7173 19.8296 14.7503 19.9097C14.7833 19.9898 14.8316 20.0626 14.8926 20.124C14.9535 20.1853 15.0259 20.2339 15.1055 20.2671C15.1851 20.3003 15.2705 20.3174 15.3567 20.3174ZM28.4012 19.657C28.4012 19.4819 28.332 19.3139 28.209 19.19C28.0859 19.0662 27.9189 18.9966 27.7448 18.9966H20.4497C20.3635 18.9966 20.2782 19.0137 20.1985 19.0469C20.1189 19.0801 20.0466 19.1287 19.9856 19.19C19.9247 19.2514 19.8763 19.3242 19.8433 19.4043C19.8103 19.4844 19.7934 19.5703 19.7934 19.657C19.7934 19.7437 19.8103 19.8296 19.8433 19.9097C19.8763 19.9898 19.9247 20.0626 19.9856 20.124C20.0466 20.1853 20.1189 20.2339 20.1985 20.2671C20.2782 20.3003 20.3635 20.3174 20.4497 20.3174H27.7424C27.9165 20.3174 28.0835 20.2478 28.2065 20.124C28.3296 20.0001 28.3988 19.8321 28.3988 19.657H28.4012ZM15.3567 17.3881H27.7424C27.9165 17.3881 28.0835 17.3185 28.2065 17.1947C28.3296 17.0708 28.3988 16.9028 28.3988 16.7277C28.3988 16.5525 28.3296 16.3846 28.2065 16.2607C28.0835 16.1369 27.9165 16.0673 27.7424 16.0673H15.3567C15.1826 16.0673 15.0157 16.1369 14.8926 16.2607C14.7695 16.3846 14.7003 16.5525 14.7003 16.7277C14.7003 16.9028 14.7695 17.0708 14.8926 17.1947C15.0157 17.3185 15.1826 17.3881 15.3567 17.3881ZM30.1842 28.9684H17.8255C17.7377 28.9657 17.6502 28.9808 17.5683 29.0128C17.4864 29.0448 17.4117 29.093 17.3486 29.1545C17.2855 29.2161 17.2354 29.2897 17.2012 29.3712C17.1669 29.4526 17.1493 29.5401 17.1493 29.6285C17.1493 29.7169 17.1669 29.8044 17.2012 29.8858C17.2354 29.9672 17.2855 30.0409 17.3486 30.1025C17.4117 30.164 17.4864 30.2122 17.5683 30.2442C17.6502 30.2762 17.7377 30.2912 17.8255 30.2886H30.1842C30.272 30.2912 30.3595 30.2762 30.4414 30.2442C30.5233 30.2122 30.598 30.164 30.6611 30.1025C30.7241 30.0409 30.7743 29.9672 30.8085 29.8858C30.8428 29.8044 30.8604 29.7169 30.8604 29.6285C30.8604 29.5401 30.8428 29.4526 30.8085 29.3712C30.7743 29.2897 30.7241 29.2161 30.6611 29.1545C30.598 29.093 30.5233 29.0448 30.4414 29.0128C30.3595 28.9808 30.272 28.9657 30.1842 28.9684ZM14.4872 28.3432L13.322 29.5155L12.7331 28.929C12.6718 28.868 12.5992 28.8198 12.5194 28.7871C12.4395 28.7543 12.3541 28.7377 12.2679 28.7382C12.0938 28.7391 11.9273 28.8097 11.8049 28.9342C11.6824 29.0587 11.6142 29.2271 11.6152 29.4022C11.6161 29.5774 11.6862 29.7449 11.81 29.8681L12.8631 30.9162C12.9861 31.0393 13.1525 31.1083 13.3259 31.1083C13.4993 31.1083 13.6657 31.0393 13.7887 30.9162L15.4145 29.2804C15.5376 29.1566 15.6068 28.9887 15.6069 28.8135C15.6069 28.6384 15.5378 28.4704 15.4148 28.3465C15.2917 28.2226 15.1248 28.153 14.9507 28.1529C14.7767 28.1529 14.6097 28.2224 14.4866 28.3462L14.4872 28.3432ZM22.9047 33.0755H17.8255C17.6514 33.0755 17.4845 33.1451 17.3614 33.2689C17.2383 33.3928 17.1692 33.5607 17.1692 33.7359C17.1692 33.911 17.2383 34.079 17.3614 34.2029C17.4845 34.3267 17.6514 34.3963 17.8255 34.3963H22.9047C23.0788 34.3963 23.2457 34.3267 23.3688 34.2029C23.4919 34.079 23.5611 33.911 23.5611 33.7359C23.5611 33.5607 23.4919 33.3928 23.3688 33.2689C23.2457 33.1451 23.0788 33.0755 22.9047 33.0755ZM30.1842 33.0755H26.1389C25.9648 33.0755 25.7979 33.1451 25.6748 33.2689C25.5517 33.3928 25.4825 33.5607 25.4825 33.7359C25.4825 33.911 25.5517 34.079 25.6748 34.2029C25.7979 34.3267 25.9648 34.3963 26.1389 34.3963H30.1842C30.3582 34.3963 30.5252 34.3267 30.6483 34.2029C30.7714 34.079 30.8405 33.911 30.8405 33.7359C30.8405 33.5607 30.7714 33.3928 30.6483 33.2689C30.5252 33.1451 30.3582 33.0755 30.1842 33.0755ZM14.4872 32.4533L13.322 33.6226L12.7331 33.0367C12.6084 32.9186 12.4428 32.8542 12.2715 32.8572C12.1003 32.8602 11.937 32.9305 11.8166 33.0529C11.6961 33.1754 11.628 33.3404 11.6267 33.5127C11.6255 33.685 11.6913 33.851 11.81 33.9752L12.8631 35.0233C12.9861 35.1464 13.1525 35.2154 13.3259 35.2154C13.4993 35.2154 13.6657 35.1464 13.7887 35.0233L15.4145 33.3875C15.478 33.3268 15.5288 33.254 15.5639 33.1732C15.599 33.0925 15.6177 33.0055 15.6189 32.9174C15.62 32.8293 15.6036 32.7418 15.5707 32.6602C15.5377 32.5785 15.4889 32.5043 15.427 32.442C15.3651 32.3796 15.2914 32.3303 15.2103 32.2971C15.1292 32.2638 15.0423 32.2472 14.9547 32.2483C14.8671 32.2493 14.7806 32.268 14.7003 32.3032C14.62 32.3384 14.5476 32.3895 14.4872 32.4533ZM12.8613 39.1329C12.9843 39.2559 13.1507 39.3249 13.3241 39.3249C13.4975 39.3249 13.6639 39.2559 13.7869 39.1329L15.4127 37.497C15.5306 37.3722 15.5954 37.2059 15.5933 37.0337C15.5911 36.8615 15.5221 36.6969 15.4011 36.5751C15.28 36.4533 15.1165 36.3839 14.9453 36.3817C14.7741 36.3795 14.6088 36.4447 14.4848 36.5634L13.322 37.7303L12.7331 37.1438C12.6084 37.0257 12.4428 36.9613 12.2715 36.9643C12.1003 36.9673 11.937 37.0376 11.8166 37.16C11.6961 37.2825 11.628 37.4475 11.6267 37.6198C11.6255 37.7921 11.6913 37.9581 11.81 38.0823L12.8613 39.1329ZM14.4872 40.6675L13.322 41.8398L12.7331 41.2534C12.6093 41.1302 12.442 41.0615 12.2679 41.0625C12.0938 41.0635 11.9273 41.134 11.8049 41.2585C11.6824 41.383 11.6142 41.5514 11.6152 41.7265C11.6161 41.9017 11.6862 42.0693 11.81 42.1924L12.8631 43.2406C12.9861 43.3636 13.1525 43.4326 13.3259 43.4326C13.4993 43.4326 13.6657 43.3636 13.7887 43.2406L15.4145 41.6048C15.5376 41.4809 15.6068 41.313 15.6069 41.1379C15.6069 40.9627 15.5378 40.7947 15.4148 40.6708C15.2917 40.5469 15.1248 40.4773 14.9507 40.4773C14.7767 40.4772 14.6097 40.5467 14.4866 40.6705L14.4872 40.6675ZM8.66431 25.7356C8.66431 25.9106 8.73338 26.0785 8.85634 26.2023C8.9793 26.3261 9.14609 26.3958 9.32006 26.3959H16.5128C16.6006 26.3986 16.6881 26.3835 16.77 26.3516C16.8519 26.3196 16.9267 26.2714 16.9897 26.2098C17.0528 26.1483 17.1029 26.0746 17.1372 25.9932C17.1714 25.9118 17.189 25.8243 17.189 25.7359C17.189 25.6475 17.1714 25.56 17.1372 25.4785C17.1029 25.3971 17.0528 25.3234 16.9897 25.2619C16.9267 25.2003 16.8519 25.1521 16.77 25.1202C16.6881 25.0882 16.6006 25.0731 16.5128 25.0758H9.32006C9.14661 25.0759 8.98027 25.1452 8.8574 25.2683C8.73453 25.3915 8.66511 25.5586 8.66431 25.7331V25.7356ZM17.7569 25.7356C17.7569 25.9107 17.826 26.0787 17.9491 26.2025C18.0722 26.3264 18.2391 26.3959 18.4132 26.3959H30.1842C30.272 26.3986 30.3595 26.3835 30.4414 26.3516C30.5233 26.3196 30.598 26.2714 30.6611 26.2098C30.7241 26.1483 30.7743 26.0746 30.8085 25.9932C30.8428 25.9118 30.8604 25.8243 30.8604 25.7359C30.8604 25.6475 30.8428 25.56 30.8085 25.4785C30.7743 25.3971 30.7241 25.3234 30.6611 25.2619C30.598 25.2003 30.5233 25.1521 30.4414 25.1202C30.3595 25.0882 30.272 25.0731 30.1842 25.0758H18.4132C18.2397 25.0758 18.0732 25.1449 17.9502 25.2681C17.8272 25.3913 17.7577 25.5585 17.7569 25.7331V25.7356ZM56.564 45.3132C56.4993 45.4699 56.4044 45.6122 56.2847 45.7318C56.165 45.8514 56.023 45.9459 55.8667 46.0099L53.5057 46.9829C53.2821 47.075 53.0371 47.1016 52.7991 47.0597C52.5611 47.0178 52.3397 46.9091 52.1605 46.7461L49.1262 47.9959C49.0376 48.0328 48.942 48.0495 48.8463 48.0449C48.7505 48.0403 48.6569 48.0145 48.5722 47.9693C48.4923 47.9268 48.4219 47.8682 48.3656 47.7971C48.3092 47.726 48.268 47.6439 48.2446 47.5561C47.9566 47.6299 47.6747 47.7263 47.4016 47.8445L47.3384 47.9553C47.1913 48.2114 46.9841 48.4274 46.7349 48.5843C46.4857 48.7412 46.2021 48.8344 45.9089 48.8556C45.9268 49.2697 45.8 49.6769 45.5506 50.0068L45.3748 50.2424C45.1898 50.4928 44.9421 50.6892 44.657 50.8116C44.3719 50.934 44.0595 50.978 43.752 50.9392L43.6376 50.9259C43.6277 51.2897 43.5073 51.6417 43.2925 51.9346L43.1203 52.1697C42.9362 52.4249 42.6872 52.6256 42.3994 52.7506C42.1117 52.8757 41.7957 52.9205 41.4848 52.8803L41.2867 52.8567L41.0338 53.1954C40.8485 53.4452 40.6007 53.6413 40.3157 53.7636C40.0307 53.886 39.7186 53.9303 39.411 53.8921L38.2862 53.7576C38.1809 53.7449 38.0803 53.7066 37.9929 53.6461L37.7214 53.4589C37.7075 53.4765 37.6943 53.4947 37.6798 53.5123C37.5464 53.6665 37.3815 53.7899 37.1963 53.8741C37.0111 53.9583 36.81 54.0012 36.6068 54H36.57L36.3135 53.9939C36.1146 53.9912 35.9185 53.9459 35.7384 53.861C35.5582 53.7761 35.3981 53.6535 35.2688 53.5013C35.2363 53.4638 35.2086 53.4256 35.1785 53.3862C35.0626 53.474 34.9359 53.5463 34.8015 53.6013C34.6003 53.6835 34.3852 53.7261 34.168 53.7267C33.8918 53.7259 33.6199 53.6564 33.3768 53.5244L33.0757 53.3632C32.8715 53.2552 32.6915 53.1061 32.547 52.9252C32.5296 52.9331 32.5133 52.9421 32.4959 52.9488C32.2945 53.0314 32.0792 53.0739 31.8618 53.0742C31.5855 53.0737 31.3136 53.0041 31.0705 52.8719L30.7695 52.7107C30.4487 52.5427 30.1919 52.2729 30.0391 51.9431C29.8232 52.0174 29.5943 52.0457 29.3669 52.0262C29.1396 52.0066 28.9188 51.9398 28.7185 51.8298L28.4174 51.668C28.1189 51.5113 27.8753 51.2662 27.7195 50.9658H2.93359C2.33192 50.965 1.75512 50.7242 1.32967 50.2961C0.904225 49.8681 0.664859 49.2877 0.664062 48.6824V7.26967C0.6647 6.6642 0.903995 6.0837 1.32946 5.6555C1.75492 5.22731 2.33181 4.98639 2.93359 4.98559H12.3049C12.4522 4.50931 12.7469 4.09281 13.1459 3.79681C13.545 3.50082 14.0275 3.3408 14.5233 3.34009H14.8599V2.33012C14.8607 1.71228 15.105 1.11998 15.5393 0.683149C15.9736 0.246322 16.5623 0.000641231 17.1764 0H23.9272C24.5412 0.000641527 25.1299 0.246342 25.564 0.683186C25.9982 1.12003 26.2424 1.71233 26.2431 2.33012V3.34009H26.2918C26.7876 3.3408 27.2702 3.50082 27.6692 3.79681C28.0682 4.09281 28.3629 4.50931 28.5102 4.98559H36.5706C37.1724 4.98639 37.7493 5.22731 38.1748 5.6555C38.6002 6.0837 38.8395 6.6642 38.8402 7.26967V34.8307C39.2159 34.8446 39.5935 34.8755 39.9692 34.927C41.0806 35.0863 42.1496 35.4652 43.1149 36.0418C43.9378 36.6019 44.9337 36.8453 45.9203 36.7276C45.9061 36.5864 45.9376 36.4444 46.01 36.3227C46.0825 36.201 46.1921 36.1061 46.3226 36.0521L47.5955 35.5274C47.604 35.3816 47.6367 35.2382 47.6925 35.1033C47.757 34.9466 47.8518 34.8044 47.9714 34.6849C48.091 34.5654 48.233 34.471 48.3892 34.4072L50.7508 33.4342C51.066 33.305 51.4192 33.3068 51.733 33.4391C52.0469 33.5713 52.2959 33.8234 52.4254 34.14L56.5689 44.3281C56.6325 44.4845 56.6649 44.6521 56.6641 44.8211C56.6632 44.9902 56.6292 45.1574 56.564 45.3132ZM39.791 36.2357C37.7654 35.9913 35.711 36.2389 33.8001 36.9578C33.2913 37.5023 32.8303 38.0902 32.4224 38.7148C31.9684 39.3528 31.4674 40.0574 30.9477 40.6754C31.5503 40.8869 32.1989 40.9288 32.8234 40.7965L34.4992 39.5067C34.6285 39.4078 34.7895 39.3601 34.9514 39.3728L38.8209 39.6909C38.9233 39.6994 39.0223 39.7319 39.1099 39.786L45.8186 43.9155C45.8664 43.9449 45.9103 43.9804 45.9492 44.0209L47.3053 45.4386C47.5402 45.6822 47.7016 45.9879 47.7708 46.3201C47.8352 46.302 47.9002 46.285 47.9653 46.2686L46.1925 38.029C44.902 38.2131 43.5887 37.9224 42.4941 37.2105C41.6661 36.7085 40.7473 36.3772 39.791 36.2357ZM36.5706 6.30636H28.6144V8.27418H34.9159C35.0899 8.27418 35.2567 8.34367 35.3798 8.46739C35.5029 8.5911 35.5721 8.75892 35.5723 8.93396V35.09C36.2184 34.9676 36.8717 34.8867 37.5281 34.8476V7.26967C37.5278 7.01428 37.4268 6.76945 37.2473 6.58886C37.0678 6.40827 36.8245 6.30668 36.5706 6.30636ZM16.1726 3.33766H24.931V2.33012C24.9306 2.06242 24.8248 1.80578 24.6366 1.61654C24.4484 1.4273 24.1932 1.32093 23.9272 1.32077H17.1764C16.9103 1.32093 16.6552 1.4273 16.467 1.61654C16.2788 1.80578 16.1729 2.06242 16.1726 2.33012V3.33766ZM13.5135 8.71888C13.5138 8.98825 13.6203 9.24649 13.8096 9.43696C13.9989 9.62743 14.2556 9.73458 14.5233 9.7349H26.2918C26.5596 9.73458 26.8162 9.62743 27.0055 9.43696C27.1948 9.24649 27.3013 8.98825 27.3017 8.71888V5.67445C27.3013 5.40508 27.1948 5.14684 27.0055 4.95637C26.8162 4.7659 26.5596 4.65875 26.2918 4.65843H14.5233C14.2556 4.65875 13.9989 4.7659 13.8096 4.95637C13.6203 5.14684 13.5138 5.40508 13.5135 5.67445V8.71888ZM15.6873 11.4392C15.6876 11.7069 15.7935 11.9635 15.9817 12.1528C16.1699 12.342 16.425 12.4484 16.6911 12.4485H24.1241C24.3901 12.4484 24.6453 12.342 24.8335 12.1528C25.0217 11.9635 25.1275 11.7069 25.1279 11.4392V11.0557H15.6873V11.4392ZM12.3706 9.59434H5.24467V46.3577H18.8016L19.8217 42.6105H17.8255C17.655 42.6053 17.4931 42.5335 17.3743 42.4102C17.2555 42.287 17.189 42.1221 17.189 41.9504C17.189 41.7787 17.2555 41.6138 17.3743 41.4906C17.4931 41.3673 17.655 41.2955 17.8255 41.2903H20.1818L20.9399 38.5034H17.8213C17.6472 38.5034 17.4803 38.4338 17.3572 38.31C17.2341 38.1861 17.165 38.0181 17.165 37.843C17.165 37.6679 17.2341 37.4999 17.3572 37.376C17.4803 37.2522 17.6472 37.1826 17.8213 37.1826H21.3L21.6691 35.8267C21.7617 35.488 21.9841 35.2001 22.2874 35.0261C22.5907 34.8521 22.9502 34.8062 23.2871 34.8985L25.8763 35.6128C26.1186 35.6801 26.3367 35.8156 26.505 36.0035C26.6732 36.1913 26.7846 36.4237 26.8259 36.6731L28.244 37.0639C28.3802 37.1015 28.5007 37.1825 28.5875 37.2946C28.6743 37.4067 28.7228 37.544 28.7258 37.6861C28.7957 37.6674 28.8646 37.6452 28.9323 37.6194C29.2304 37.5055 29.5344 37.3668 29.8524 37.2202C30.674 36.775 31.5759 36.4997 32.5049 36.4107C32.6496 36.2372 32.8075 36.0752 32.977 35.9261C33.3741 35.6843 33.8065 35.5069 34.2584 35.4002V9.59434H28.4445C28.2802 10.0018 28.005 10.3543 27.6505 10.6115C27.2961 10.8687 26.8767 11.0202 26.4406 11.0484V11.4398C26.4398 12.0576 26.1954 12.6499 25.7612 13.0868C25.3269 13.5236 24.7381 13.7693 24.1241 13.7699H16.6911C16.077 13.7693 15.4882 13.5236 15.054 13.0868C14.6197 12.6499 14.3754 12.0576 14.3746 11.4398V11.0484C13.9384 11.0202 13.5191 10.8687 13.1646 10.6115C12.8101 10.3543 12.5349 10.0018 12.3706 9.59434ZM19.8927 47.3489L22.4874 48.0686L25.5331 36.8918V36.8863L22.9438 36.172L19.8927 47.3489ZM23.9597 47.676L26.4364 48.3588L27.3673 38.1914L26.5977 37.9793L25.8149 40.8462L23.9597 47.676ZM27.6732 49.264C27.66 49.406 27.6015 49.5399 27.5064 49.6457H27.5805C27.6272 49.5002 27.6985 49.3639 27.7912 49.2428C27.7533 49.2252 27.7159 49.207 27.6786 49.1883L27.6732 49.264ZM2.93359 49.6457H26.1395L23.4948 48.9187C23.3715 49.0664 23.2176 49.1852 23.0439 49.2669C22.8703 49.3487 22.681 49.3913 22.4892 49.3918C22.3714 49.3918 22.2541 49.3757 22.1406 49.344L19.5513 48.6297C19.3272 48.5677 19.1233 48.4472 18.9604 48.2804C18.7976 48.1135 18.6815 47.9063 18.624 47.6797H4.58832C4.41434 47.6797 4.24749 47.6102 4.12442 47.4865C4.00135 47.3628 3.93212 47.1949 3.93196 47.0199V8.93396C3.93212 8.75892 4.00135 8.5911 4.12442 8.46739C4.24749 8.34367 4.41434 8.27418 4.58832 8.27418H12.2008V6.30636H2.93359C2.67982 6.30668 2.43654 6.40829 2.25715 6.5889C2.07776 6.7695 1.97692 7.01434 1.97676 7.26967V48.6824C1.97692 48.9377 2.07776 49.1825 2.25715 49.3631C2.43654 49.5437 2.67982 49.6454 2.93359 49.6457ZM29.8777 50.4236L30.2679 49.367C30.2869 49.319 30.288 49.2658 30.2709 49.2171C30.2539 49.1684 30.2198 49.1276 30.1751 49.1022L29.9794 48.9853C29.9567 48.9716 29.9307 48.9644 29.9042 48.9647C29.7741 48.9647 29.6368 49.1198 29.6296 49.1277L28.8365 50.0365C28.8239 50.051 28.8095 50.1249 28.8444 50.2618C28.8553 50.314 28.8779 50.3629 28.9104 50.4049C28.943 50.4469 28.9847 50.4809 29.0322 50.5042L29.3333 50.6653C29.3811 50.6935 29.4349 50.7097 29.4902 50.7127C29.5456 50.7156 29.6008 50.7052 29.6513 50.6823C29.7064 50.6598 29.7555 50.6247 29.7948 50.5798C29.8341 50.5349 29.8624 50.4814 29.8777 50.4236ZM32.2171 51.4978C32.2507 51.3458 32.3054 51.1994 32.3796 51.0628L32.8885 49.6863C32.9073 49.6383 32.9084 49.5851 32.8913 49.5364C32.8743 49.4878 32.8403 49.447 32.7957 49.4215L32.6 49.3046C32.5663 49.2845 32.5278 49.2738 32.4886 49.2737C32.4527 49.2739 32.4174 49.2831 32.3859 49.3005C32.3543 49.3178 32.3276 49.3428 32.308 49.373L31.247 51.0089C31.2188 51.0529 31.2001 51.1024 31.1919 51.1541C31.1838 51.2059 31.1863 51.2588 31.1995 51.3094C31.2127 51.3601 31.2362 51.4075 31.2685 51.4486C31.3008 51.4896 31.3413 51.5235 31.3873 51.5481L31.6884 51.7098C31.7362 51.738 31.79 51.7542 31.8453 51.7572C31.9006 51.7601 31.9558 51.7497 32.0063 51.7268C32.0558 51.7062 32.1003 51.6751 32.1367 51.6356C32.173 51.596 32.2005 51.549 32.2171 51.4978ZM35.1947 50.3382C35.2137 50.2902 35.2147 50.2368 35.1975 50.1881C35.1803 50.1395 35.1462 50.0987 35.1014 50.0734L34.9063 49.9565C34.8727 49.9361 34.8341 49.9254 34.7949 49.9256C34.759 49.9258 34.7237 49.935 34.6921 49.9524C34.6606 49.9697 34.6338 49.9947 34.6142 50.0249L33.5719 51.6305L33.4936 51.8425C33.4919 51.8815 33.496 51.9205 33.5057 51.9582C33.5165 52.0104 33.539 52.0594 33.5716 52.1014C33.6042 52.1434 33.6459 52.1773 33.6935 52.2006L33.9946 52.3623C34.0425 52.3904 34.0963 52.4065 34.1516 52.4095C34.2068 52.4124 34.262 52.4021 34.3126 52.3793C34.3675 52.3567 34.4165 52.3215 34.4557 52.2766C34.4949 52.2318 34.5232 52.1783 34.5384 52.1206L35.1947 50.3382ZM36.72 52.515L36.5646 51.0949V51.0919L36.3936 51.0816L36.2274 52.5417C36.2241 52.558 36.225 52.575 36.2301 52.5909C36.2351 52.6068 36.2442 52.6212 36.2563 52.6325C36.2663 52.6465 36.2797 52.6577 36.2952 52.665C36.3107 52.6723 36.3278 52.6755 36.3448 52.6744L36.6014 52.6804C36.6191 52.6828 36.6372 52.6803 36.6536 52.6731C36.6701 52.666 36.6843 52.6545 36.6947 52.6398C36.7079 52.6229 36.7278 52.5998 36.7188 52.515H36.72ZM39.8771 52.509L37.89 51.1397L37.9887 52.0449L38.6005 52.469L39.564 52.5847C39.674 52.6002 39.7857 52.5725 39.8759 52.5071L39.8771 52.509ZM46.3599 46.351L45.0617 44.9945L38.5584 40.991L35.096 40.7069L33.5075 41.9301C33.4359 41.9848 33.3539 42.0242 33.2666 42.0458C32.3032 42.2882 30.1011 42.3487 29.4459 40.9977C29.3875 40.8767 29.3671 40.7406 29.3876 40.6077C29.408 40.4748 29.4683 40.3513 29.5603 40.2537C30.1851 39.5511 30.7638 38.8084 31.2927 38.0302C30.9995 38.1453 30.7008 38.2822 30.3961 38.4222C30.071 38.5706 29.7338 38.7251 29.3972 38.8542C29.1421 38.951 28.8768 39.0177 28.6065 39.0529L27.8129 47.7384C28.0887 47.9307 28.391 48.0813 28.7101 48.1856C28.945 47.9125 29.2667 47.7298 29.6205 47.6686C29.9743 47.6074 30.3382 47.6715 30.6502 47.8499L30.8459 47.9669C31.0509 48.0897 31.2244 48.2592 31.3524 48.4618C31.5886 48.1968 31.909 48.0227 32.2588 47.9693C32.6086 47.9159 32.9659 47.9866 33.2696 48.1692L33.4653 48.2861C33.6868 48.4194 33.871 48.607 34.0006 48.8314C34.2377 48.6862 34.5097 48.6088 34.7873 48.6075C35.0648 48.6063 35.3375 48.6811 35.5759 48.8241L35.7716 48.9411C36.0837 49.128 36.3195 49.4205 36.437 49.7662C36.4526 49.7662 36.4689 49.7662 36.4851 49.7662L36.6555 49.7784C36.9519 49.7995 37.2322 49.9215 37.4504 50.1243C37.4612 50.1035 37.4731 50.0833 37.4859 50.0637C37.5346 49.9921 37.5968 49.9309 37.669 49.8836C37.7412 49.8362 37.822 49.8036 37.9067 49.7877C37.9915 49.7718 38.0785 49.7728 38.1628 49.7908C38.2471 49.8087 38.3271 49.8432 38.3982 49.8923L40.6647 51.4542L41.0657 51.5026L41.0983 51.5075L41.6402 51.5729C41.7203 51.5857 41.8025 51.5755 41.877 51.5433C41.9516 51.5111 42.0157 51.4584 42.0617 51.3912L42.2333 51.1567C42.2886 51.0847 42.3207 50.9973 42.3251 50.9064C42.3295 50.8155 42.3061 50.7255 42.258 50.6484L38.1031 47.7827C37.9651 47.6818 37.8716 47.5309 37.8422 47.3619C37.8129 47.1928 37.8501 47.019 37.946 46.877C38.0419 46.7351 38.1889 46.6363 38.3559 46.6016C38.5229 46.5669 38.6968 46.5989 38.8408 46.6909L42.9475 49.5172L43.9031 49.6317C43.9828 49.6441 44.0643 49.6336 44.1383 49.6015C44.2124 49.5693 44.2759 49.5168 44.3216 49.45L44.498 49.2149C44.5648 49.1267 44.5974 49.017 44.5896 48.9064C44.5818 48.7958 44.5343 48.6918 44.4559 48.6139L43.8333 47.9862L40.3558 45.5895C40.2846 45.5405 40.2237 45.4779 40.1766 45.4053C40.1295 45.3326 40.097 45.2513 40.0811 45.1661C40.0652 45.0808 40.0662 44.9932 40.0839 44.9083C40.1016 44.8235 40.1358 44.7429 40.1845 44.6713C40.2332 44.5997 40.2954 44.5384 40.3676 44.491C40.4398 44.4436 40.5205 44.411 40.6053 44.395C40.69 44.3789 40.7771 44.3799 40.8615 44.3977C40.9458 44.4156 41.0259 44.45 41.0971 44.4989L44.8431 47.0817L45.5699 47.4864C45.6785 47.5438 45.8051 47.5561 45.9226 47.5206C46.0402 47.4852 46.1392 47.4048 46.1985 47.2968L46.4358 46.8818C46.4832 46.7973 46.5015 46.6994 46.4878 46.6034C46.4741 46.5073 46.4291 46.4186 46.3599 46.351ZM51.5445 45.5731L47.9737 36.7985L47.3288 37.0645L49.3538 46.4758L51.5445 45.5731ZM55.3429 44.7988L51.2217 34.6701L48.913 35.6213L53.0348 45.7494L55.3429 44.7988Z" fill="#23333F"/>
</svg>
