<svg width="27" height="27" viewBox="0 0 27 27" fill="none" xmlns="http://www.w3.org/2000/svg">
<g clip-path="url(#clip0_2959_3409)">
<path d="M17.4554 1.88136H15.6954C15.3616 0.938162 14.4605 0.260742 13.4039 0.260742C12.3472 0.260742 11.4461 0.938162 11.1107 1.88136H9.3523C8.90501 1.88136 8.54199 2.24438 8.54199 2.69167V5.93291C8.54199 6.38021 8.90501 6.74323 9.3523 6.74323H17.4554C17.9027 6.74323 18.2657 6.38021 18.2657 5.93291V2.69167C18.2657 2.24438 17.9027 1.88136 17.4554 1.88136Z" fill="#23333F"/>
<path d="M21.507 3.50195H19.8864V5.93288C19.8864 7.27314 18.7957 8.36382 17.4555 8.36382H9.35235C8.01209 8.36382 6.92142 7.27314 6.92142 5.93288V3.50195H5.3008C4.40783 3.50195 3.68018 4.22961 3.68018 5.12257V24.57C3.68018 25.4792 4.39163 26.1906 5.3008 26.1906H21.507C22.4162 26.1906 23.1276 25.4792 23.1276 24.57V5.12257C23.1276 4.21341 22.4162 3.50195 21.507 3.50195ZM13.1673 17.8509L9.92605 21.0922C9.76723 21.2494 9.55979 21.3288 9.35235 21.3288C9.14491 21.3288 8.93747 21.2494 8.77865 21.0922L7.15803 19.4715C6.84201 19.1555 6.84201 18.6418 7.15803 18.3258C7.47405 18.0098 7.98779 18.0098 8.30381 18.3258L9.35235 19.3727L12.0199 16.7052C12.3359 16.3891 12.8496 16.3891 13.1657 16.7052C13.4817 17.0212 13.4833 17.5333 13.1673 17.8509ZM13.1673 11.3684L9.92605 14.6097C9.76723 14.7669 9.55979 14.8463 9.35235 14.8463C9.14491 14.8463 8.93747 14.7669 8.77865 14.6097L7.15803 12.9891C6.84201 12.673 6.84201 12.1593 7.15803 11.8433C7.47405 11.5273 7.98779 11.5273 8.30381 11.8433L9.35235 12.8902L12.0199 10.2227C12.3359 9.90665 12.8496 9.90665 13.1657 10.2227C13.4817 10.5387 13.4833 11.0508 13.1673 11.3684ZM19.0761 19.7082H15.8348C15.3875 19.7082 15.0245 19.3451 15.0245 18.8979C15.0245 18.4506 15.3875 18.0875 15.8348 18.0875H19.0761C19.5234 18.0875 19.8864 18.4506 19.8864 18.8979C19.8864 19.3451 19.5234 19.7082 19.0761 19.7082ZM19.0761 13.2257H15.8348C15.3875 13.2257 15.0245 12.8627 15.0245 12.4154C15.0245 11.9681 15.3875 11.6051 15.8348 11.6051H19.0761C19.5234 11.6051 19.8864 11.9681 19.8864 12.4154C19.8864 12.8627 19.5234 13.2257 19.0761 13.2257Z" fill="#23333F"/>
</g>
<defs>
<clipPath id="clip0_2959_3409">
<rect width="25.9299" height="25.9299" fill="none" transform="translate(0.438965 0.260742)"/>
</clipPath>
</defs>
</svg>
