<svg width="57" height="57" viewBox="0 0 57 57" fill="none" xmlns="http://www.w3.org/2000/svg">
<path d="M28.5327 52.8545C27.9238 52.8153 9.59726 47.4826 9.36816 28.4644V12.7763C9.36816 12.3399 9.69046 11.9775 10.1103 11.9148C13.5772 10.8956 17.0066 9.63517 20.3045 8.16828C22.9587 6.98797 25.5798 5.65 28.0955 4.19181C28.3664 4.03502 28.6991 4.03502 28.9691 4.19181C34.625 7.47142 40.6764 10.069 46.9543 11.9157C47.3733 11.9775 47.6956 12.339 47.6964 12.7754C47.6973 12.7754 47.6964 28.4635 47.6964 28.4644C47.4691 47.5105 29.1399 52.777 28.5327 52.8545ZM11.1112 13.4357V28.4644C11.1112 45.1002 26.3542 50.4025 28.5327 51.0749C30.7113 50.4025 45.9543 45.1002 45.9543 28.4644V13.4348C39.882 11.6073 34.0336 9.09424 28.5327 5.95052C23.031 9.09598 17.1809 11.6082 11.1112 13.4357Z" fill="#23333F"/>
<path d="M28.5272 48.2542C24.7885 47.0051 13.8443 41.7865 13.7241 28.4642V15.9843C13.7241 15.6097 13.9637 15.277 14.3191 15.1576C19.0995 13.5609 23.6875 11.5714 28.1178 9.17159C28.3765 9.03135 28.6884 9.03135 28.9471 9.17159C30.9244 10.2421 32.9584 11.2439 34.9915 12.1481C37.5071 13.2674 40.116 14.2796 42.7449 15.1576C43.1003 15.277 43.3407 15.6097 43.3407 15.9843V28.4642C43.2197 41.7403 32.2702 46.9824 28.5272 48.2542ZM15.4663 16.6097V28.4642C15.4663 39.891 24.353 44.7821 28.5255 46.4467C31.9784 45.0469 41.5986 40.0931 41.5986 28.4642V16.6097C37.0768 15.0627 32.7458 13.1794 28.5324 10.9277C24.3216 13.1794 19.9863 15.0644 15.4663 16.6097Z" fill="#23333F"/>
<path d="M26.7907 35.4325C26.5572 35.4325 26.3255 35.3393 26.1539 35.1555L20.8072 29.4221C20.4814 29.0858 20.5015 28.5039 20.8499 28.1904C24.7236 24.6956 23.3856 24.6477 27.0058 28.4055L32.7401 23.0588C33.0903 22.7313 33.6426 22.7505 33.9709 23.1015L36.3481 25.6503C36.6739 25.9865 36.6539 26.5693 36.3046 26.882L27.3856 35.199C27.2175 35.3558 27.0041 35.4334 26.7915 35.4334L26.7907 35.4325ZM22.6748 28.8707L26.8333 33.3306L34.4788 26.2017L33.2906 24.9273L27.5563 30.274C27.3873 30.4316 27.1609 30.5248 26.9318 30.5074C26.7009 30.4996 26.4823 30.3994 26.3246 30.2313L23.9483 27.6834L22.6739 28.8715L22.6748 28.8707Z" fill="#23333F"/>
</svg>
