<svg width="51" height="51" viewBox="0 0 51 51" fill="none" xmlns="http://www.w3.org/2000/svg">
<g clip-path="url(#clip0_3113_2072)">
<path d="M36.8051 14.0896C36.6246 13.9063 36.374 13.8008 36.1186 13.8008C35.8632 13.8008 35.6126 13.9063 35.432 14.0896C35.2514 14.273 35.1475 14.5264 35.1475 14.7866C35.1475 15.0459 35.2513 15.3003 35.432 15.4836C35.6127 15.667 35.8632 15.7725 36.1186 15.7725C36.374 15.7725 36.6246 15.667 36.8051 15.4836C36.9857 15.3003 37.0897 15.0459 37.0897 14.7866C37.0897 14.5273 36.9858 14.273 36.8051 14.0896Z" fill="#23333F"/>
<path d="M14.9477 27.8984H7.17865C6.64239 27.8984 6.20752 28.3398 6.20752 28.8843V36.771C6.20752 37.3155 6.64239 37.7569 7.17865 37.7569H14.9477C15.484 37.7569 15.9188 37.3155 15.9188 36.771V28.8843C15.9188 28.3398 15.4841 27.8984 14.9477 27.8984ZM13.9766 35.7852H8.14978V29.8701H13.9766V35.7852Z" fill="#23333F"/>
<path d="M49.5035 20.7772C49.1406 20.6245 48.7228 20.7091 48.4452 20.9909L38.5495 31.0365C38.5495 31.0366 38.5493 31.0367 38.5491 31.0369C38.5489 31.0371 38.5488 31.0372 38.5487 31.0374L27.0132 42.7477C27.013 42.7479 27.0129 42.748 27.0127 42.7482C27.0125 42.7484 27.0124 42.7485 27.0122 42.7487L20.9622 48.8904C20.6845 49.1724 20.6014 49.5965 20.7516 49.9648C20.902 50.3332 21.256 50.5733 21.6489 50.5733H49.1319C49.6681 50.5733 50.103 50.132 50.103 49.5875V21.6881C50.103 21.2894 49.8664 20.9299 49.5035 20.7772ZM48.1607 48.6017H23.9935L27.6994 44.8396L28.6264 45.7807C28.8161 45.9732 29.0646 46.0694 29.3131 46.0694C29.5616 46.0694 29.8101 45.9732 29.9998 45.7807C30.379 45.3957 30.379 44.7715 29.9998 44.3864L29.0728 43.4453L31.5449 40.9357L32.4718 41.8767C32.6615 42.0692 32.91 42.1655 33.1585 42.1655C33.407 42.1655 33.6555 42.0691 33.8452 41.8767C34.2244 41.4917 34.2244 40.8675 33.8452 40.4825L32.9182 39.5414L35.3903 37.0319L36.3173 37.973C36.507 38.1655 36.7555 38.2617 37.004 38.2617C37.2525 38.2617 37.501 38.1655 37.6907 37.973C38.0699 37.588 38.0699 36.9638 37.6907 36.5787L36.7636 35.6376L39.2357 33.1281L40.1627 34.0692C40.3524 34.2617 40.6009 34.358 40.8494 34.358C41.0979 34.358 41.3464 34.2617 41.5361 34.0692C41.9153 33.6842 41.9153 33.06 41.5361 32.6749L40.609 31.7338L43.0811 29.2243L44.0081 30.1653C44.1977 30.3578 44.4463 30.454 44.6948 30.454C44.9433 30.454 45.1918 30.3577 45.3815 30.1653C45.7607 29.7803 45.7607 29.156 45.3815 28.7711L44.4544 27.83L48.1607 24.0681V48.6017Z" fill="#23333F"/>
<path d="M44.6475 32.6777C44.2845 32.525 43.8668 32.6094 43.5891 32.8913L32.6844 43.9614C32.4067 44.2433 32.3235 44.6673 32.4738 45.0357C32.6242 45.4041 32.9782 45.6443 33.3711 45.6443H44.2758C44.8121 45.6443 45.2469 45.2029 45.2469 44.6584V33.5885C45.2469 33.1898 45.0104 32.8303 44.6475 32.6777ZM43.3047 43.6726H35.7157L43.3047 35.9685V43.6726Z" fill="#23333F"/>
<path d="M45.3501 14.8125C45.0827 14.5412 44.6847 14.4518 44.3294 14.5838L37.6984 17.049C37.5659 17.0982 37.4455 17.1762 37.3456 17.2776L35.4811 19.1703L23.3064 6.81104C23.1243 6.6262 22.8773 6.52229 22.6198 6.52229C22.3622 6.52229 22.1152 6.6262 21.9331 6.81104L7.2784 21.6877H3.69658L22.6198 2.47776L33.004 13.0193C33.3833 13.4043 33.998 13.4043 34.3774 13.0193C34.7567 12.6343 34.7567 12.0101 34.3774 11.625L23.3065 0.386386C22.9272 0.00141309 22.3125 0.00141309 21.9331 0.386386L0.665289 21.9764C0.387643 22.2584 0.304514 22.6824 0.454748 23.0508C0.605079 23.4193 0.959154 23.6594 1.35198 23.6594H2.32311V49.5872C2.32311 50.1317 2.75798 50.573 3.29424 50.573H18.7339C19.2701 50.573 19.705 50.1317 19.705 49.5872C19.705 49.0427 19.2701 48.6013 18.7339 48.6013H4.26537V23.6594H7.68065C7.93819 23.6594 8.18515 23.5555 8.36733 23.3707L22.6198 8.90232L34.1077 20.5644L19.7064 35.184V26.3212H26.5043C27.0405 26.3212 27.4754 25.8799 27.4754 25.3354C27.4754 24.7909 27.0405 24.3495 26.5043 24.3495H18.7352C18.199 24.3495 17.7641 24.7909 17.7641 25.3354V36.7712C17.7641 36.8862 17.7845 36.9961 17.8201 37.0987L16.9501 37.9819C15.4128 39.5425 15.4128 42.0818 16.9501 43.6424C17.7188 44.4228 18.7283 44.813 19.7381 44.8129C20.7477 44.8129 21.7576 44.4227 22.5261 43.6425L30.7159 35.3287C31.0951 34.9437 31.0951 34.3195 30.7159 33.9345C30.3367 33.5495 29.7219 33.5495 29.3424 33.9345L23.1377 40.2333L20.3085 37.3612L38.0517 19.3491L40.8809 22.2212L34.101 29.104C33.7217 29.4889 33.7217 30.1132 34.101 30.4981C34.4803 30.8831 35.095 30.8831 35.4744 30.4981L42.9216 22.9381C43.0214 22.8368 43.0983 22.7145 43.1468 22.58L45.5752 15.8486C45.7052 15.4882 45.6174 15.0839 45.3501 14.8125ZM21.7644 41.6274L21.1528 42.2482C20.7749 42.6318 20.2726 42.8431 19.7382 42.8431C19.2038 42.8431 18.7014 42.6318 18.3237 42.2482C17.9457 41.8647 17.7377 41.3547 17.7377 40.8123C17.7377 40.2699 17.9456 39.7598 18.3236 39.3762L18.9352 38.7553L21.7644 41.6274ZM41.8565 20.4229L39.8232 18.3587L43.0316 17.166L41.8565 20.4229Z" fill="#23333F"/>
<path d="M33.0775 31.5359C32.897 31.3526 32.6465 31.2471 32.3911 31.2471C32.1356 31.2471 31.8851 31.3526 31.7045 31.5359C31.5238 31.7203 31.4199 31.9736 31.4199 32.2329C31.4199 32.4932 31.5237 32.7465 31.7045 32.9309C31.8851 33.1143 32.1347 33.2188 32.3911 33.2188C32.6465 33.2188 32.897 33.1143 33.0775 32.9309C33.2582 32.7465 33.3622 32.4922 33.3622 32.2329C33.3622 31.9736 33.2583 31.7203 33.0775 31.5359Z" fill="#23333F"/>
<path d="M22.62 14.9844C20.5852 14.9844 18.9297 16.6649 18.9297 18.7306C18.9297 20.7962 20.5852 22.4768 22.62 22.4768C24.6548 22.4768 26.3103 20.7962 26.3103 18.7306C26.3103 16.6649 24.6548 14.9844 22.62 14.9844ZM22.62 20.5051C21.6561 20.5051 20.872 19.7091 20.872 18.7306C20.872 17.7521 21.6561 16.9561 22.62 16.9561C23.5838 16.9561 24.368 17.7521 24.368 18.7306C24.368 19.709 23.5838 20.5051 22.62 20.5051Z" fill="#23333F"/>
</g>
<defs>
<clipPath id="clip0_3113_2072">
<rect width="49.722" height="50.4754" fill="white" transform="translate(0.380859 0.0976562)"/>
</clipPath>
</defs>
</svg>
