<svg width="55" height="55" viewBox="0 0 55 55" fill="none" xmlns="http://www.w3.org/2000/svg">
<g clip-path="url(#clip0_3005_49761)">
<path d="M52.5289 11.6528C51.3858 10.9927 50.0544 10.8173 48.7792 11.1593C47.5044 11.5009 46.4386 12.3183 45.7785 13.4613L42.5391 19.0724V3.22266C42.5391 1.44558 41.0935 0 39.3164 0H3.22266C1.44558 0 0 1.44558 0 3.22266V43.7744C0 44.0593 0.113297 44.3325 0.314713 44.5339L10.4661 54.6853C10.6675 54.8867 10.9407 55 11.2256 55H21.6098C22.2032 55 22.6841 54.5191 22.6841 53.9258C22.6841 53.3324 22.2032 52.8516 21.6098 52.8516H12.2998V45.914C12.2998 44.137 10.8542 42.6914 9.07715 42.6914H2.14844V3.22266C2.14844 2.63016 2.63016 2.14844 3.22266 2.14844H39.3164C39.9089 2.14844 40.3906 2.63016 40.3906 3.22266V22.7936L33.0759 35.4635C33.0096 35.4509 32.9412 35.4433 32.8711 35.4433H9.66797C9.07463 35.4433 8.59375 35.9246 8.59375 36.5176C8.59375 37.1109 9.07463 37.5918 9.66797 37.5918H31.8468L30.3572 40.172C30.2766 40.3113 30.2288 40.467 30.2162 40.6277L29.5372 49.5383C29.5058 49.9503 29.7135 50.3439 30.071 50.5504C30.2376 50.6465 30.423 50.6943 30.6081 50.6943C30.8204 50.6943 31.0323 50.6314 31.2144 50.5067L38.5921 45.4634C38.7247 45.3723 38.8355 45.2527 38.9161 45.1134L40.3906 42.5592V51.7773C40.3906 52.3698 39.9089 52.8516 39.3164 52.8516H31.2778C30.6845 52.8516 30.2036 53.3324 30.2036 53.9258C30.2036 54.5191 30.6845 55 31.2778 55H39.3164C41.0935 55 42.5391 53.5544 42.5391 51.7773V38.838L54.3374 18.4027C55.6999 16.0432 54.8884 13.0148 52.5289 11.6528ZM9.07715 44.8398C9.66965 44.8398 10.1514 45.3215 10.1514 45.914V51.3233L3.66787 44.8398H9.07715ZM32.2291 42.4929L35.9704 44.6531L31.8497 47.47L32.2291 42.4929ZM37.5926 43.1089L32.7549 40.3159L45.2808 18.6205L50.1186 21.4135L37.5926 43.1089ZM52.4768 17.3285L51.1928 19.5525L46.3551 16.7595L47.6391 14.5355C48.4091 13.202 50.1207 12.7433 51.4542 13.5133C52.7882 14.2833 53.2468 15.9949 52.4768 17.3285Z" fill="#A3AEB5"/>
<path d="M25.8329 42.5322C25.8329 41.9389 25.352 41.458 24.7587 41.458H15.4331C14.8398 41.458 14.3589 41.9389 14.3589 42.5322C14.3589 43.1256 14.8398 43.6064 15.4331 43.6064H24.7587C25.352 43.6064 25.8329 43.1256 25.8329 42.5322Z" fill="#A3AEB5"/>
<path d="M32.8711 29.4258H16.4309C15.8376 29.4258 15.3567 29.9067 15.3567 30.5C15.3567 31.0933 15.8376 31.5742 16.4309 31.5742H32.8711C33.4644 31.5742 33.9453 31.0933 33.9453 30.5C33.9453 29.9067 33.4644 29.4258 32.8711 29.4258Z" fill="#A3AEB5"/>
<path d="M9.66797 25.5596H32.8711C33.4644 25.5596 33.9453 25.0787 33.9453 24.4854C33.9453 23.892 33.4644 23.4111 32.8711 23.4111H9.66797C9.07463 23.4111 8.59375 23.892 8.59375 24.4854C8.59375 25.0787 9.07463 25.5596 9.66797 25.5596Z" fill="#A3AEB5"/>
<path d="M32.8711 11.376H9.66797C9.07463 11.376 8.59375 11.8569 8.59375 12.4502C8.59375 13.0435 9.07463 13.5244 9.66797 13.5244H32.8711C33.4644 13.5244 33.9453 13.0435 33.9453 12.4502C33.9453 11.8569 33.4644 11.376 32.8711 11.376Z" fill="#A3AEB5"/>
<path d="M32.871 17.3936H24.7585C24.1656 17.3936 23.6843 17.8744 23.6843 18.4678C23.6843 19.0611 24.1656 19.542 24.7585 19.542H32.871C33.4643 19.542 33.9452 19.0611 33.9452 18.4678C33.9452 17.8744 33.4643 17.3936 32.871 17.3936Z" fill="#A3AEB5"/>
<path d="M9.66797 19.542H19.2105C19.8038 19.542 20.2847 19.0611 20.2847 18.4678C20.2847 17.8744 19.8038 17.3936 19.2105 17.3936H9.66797C9.07463 17.3936 8.59375 17.8744 8.59375 18.4678C8.59375 19.0611 9.07463 19.542 9.66797 19.542Z" fill="#A3AEB5"/>
<path d="M9.66797 31.5742H11.4287C12.022 31.5742 12.5029 31.0933 12.5029 30.5C12.5029 29.9067 12.022 29.4258 11.4287 29.4258H9.66797C9.07463 29.4258 8.59375 29.9067 8.59375 30.5C8.59375 31.0933 9.07463 31.5742 9.66797 31.5742Z" fill="#A3AEB5"/>
<path d="M26.4443 52.8516C26.1607 52.8516 25.8846 52.9665 25.6848 53.1663C25.4838 53.366 25.3701 53.6434 25.3701 53.9258C25.3701 54.2082 25.4838 54.4856 25.6848 54.6853C25.8846 54.885 26.1607 55 26.4443 55C26.7267 55 27.0041 54.885 27.2038 54.6853C27.4036 54.4856 27.5186 54.2082 27.5186 53.9258C27.5186 53.6434 27.4036 53.366 27.2038 53.1663C27.0037 52.9665 26.7267 52.8516 26.4443 52.8516Z" fill="#A3AEB5"/>
</g>
<defs>
<clipPath id="clip0_3005_49761">
<rect width="55" height="55" fill="white"/>
</clipPath>
</defs>
</svg>
