<svg width="57" height="57" viewBox="0 0 57 57" fill="none" xmlns="http://www.w3.org/2000/svg">
<path d="M28.533 52.8545C27.9241 52.8153 9.5975 47.4826 9.36841 28.4644V12.7763C9.36841 12.3399 9.69071 11.9775 10.1106 11.9148C13.5775 10.8956 17.0069 9.63517 20.3048 8.16828C22.959 6.98797 25.58 5.65 28.0957 4.19181C28.3666 4.03502 28.6994 4.03502 28.9694 4.19181C34.6253 7.47142 40.6767 10.069 46.9545 11.9157C47.3735 11.9775 47.6958 12.339 47.6967 12.7754C47.6975 12.7754 47.6967 28.4635 47.6967 28.4644C47.4693 47.5105 29.1401 52.777 28.533 52.8545ZM11.1114 13.4357V28.4644C11.1114 45.1002 26.3544 50.4025 28.533 51.0749C30.7115 50.4025 45.9545 45.1002 45.9545 28.4644V13.4348C39.8822 11.6073 34.0338 9.09424 28.533 5.95052C23.0313 9.09598 17.1811 11.6082 11.1114 13.4357Z" fill="#A3AEB5"/>
<path d="M28.5277 48.2542C24.789 47.0051 13.8448 41.7865 13.7246 28.4642V15.9843C13.7246 15.6097 13.9642 15.277 14.3196 15.1576C19.1 13.5609 23.688 11.5714 28.1183 9.17159C28.377 9.03135 28.6888 9.03135 28.9476 9.17159C30.9249 10.2421 32.9589 11.2439 34.992 12.1481C37.5076 13.2674 40.1165 14.2796 42.7454 15.1576C43.1008 15.277 43.3412 15.6097 43.3412 15.9843V28.4642C43.2202 41.7403 32.2707 46.9824 28.5277 48.2542ZM15.4668 16.6097V28.4642C15.4668 39.891 24.3535 44.7821 28.526 46.4467C31.9789 45.0469 41.5991 40.0931 41.5991 28.4642V16.6097C37.0773 15.0627 32.7463 13.1794 28.5329 10.9277C24.3221 13.1794 19.9868 15.0644 15.4668 16.6097Z" fill="#A3AEB5"/>
<path d="M26.7907 35.4325C26.5572 35.4325 26.3255 35.3393 26.1539 35.1555L20.8072 29.4221C20.4814 29.0858 20.5015 28.5039 20.8499 28.1904C24.7236 24.6956 23.3856 24.6477 27.0058 28.4055L32.7401 23.0588C33.0903 22.7313 33.6426 22.7505 33.9709 23.1015L36.3481 25.6503C36.6739 25.9865 36.6539 26.5693 36.3046 26.882L27.3856 35.199C27.2175 35.3558 27.0041 35.4334 26.7915 35.4334L26.7907 35.4325ZM22.6748 28.8707L26.8333 33.3306L34.4788 26.2017L33.2906 24.9273L27.5563 30.274C27.3873 30.4316 27.1609 30.5248 26.9318 30.5074C26.7009 30.4996 26.4823 30.3994 26.3246 30.2313L23.9483 27.6834L22.6739 28.8715L22.6748 28.8707Z" fill="#A3AEB5"/>
</svg>
