<svg width="50" height="50" viewBox="0 0 50 50" fill="none" xmlns="http://www.w3.org/2000/svg">
<g clip-path="url(#clip0_3005_49708)">
<path d="M34.0328 15.4424C33.4958 15.4424 33.0598 15.8698 33.0598 16.3984C33.0598 16.9267 33.4958 17.3548 34.0328 17.3548C34.5711 17.3548 35.0059 16.9267 35.0059 16.3984C35.0059 15.8698 34.5711 15.4424 34.0328 15.4424Z" fill="#A3AEB5"/>
<path d="M16.3534 32.8193C15.8152 32.8193 15.3804 33.2479 15.3804 33.7758C15.3804 34.3048 15.8152 34.7322 16.3534 34.7322C16.8905 34.7322 17.3264 34.3048 17.3264 33.7758C17.3264 33.2479 16.8905 32.8193 16.3534 32.8193Z" fill="#A3AEB5"/>
<path d="M48.2943 6.41497C47.97 6.3408 47.6291 6.43711 47.3948 6.66958L43.4106 10.6168H41.5006L39.3979 8.47546V6.57179L43.325 2.65413C43.5574 2.4224 43.652 2.0892 43.5751 1.77223C43.4985 1.45562 43.2612 1.20028 42.9474 1.09622C41.9608 0.769286 40.9284 0.603605 39.8784 0.603605C36.7483 0.603605 33.9045 2.03827 32.0763 4.53972C30.3652 6.88138 29.8377 9.75109 30.5934 12.4975L23.5143 19.4558L11.7205 7.83672V5.55631C11.7205 5.22458 11.5433 4.91683 11.2539 4.74636L4.45859 0.73829C4.08018 0.515045 3.59628 0.573716 3.28469 0.880355L0.566731 3.55154C0.255142 3.85818 0.195452 4.33382 0.422199 4.70577L4.49914 11.385C4.67258 11.6695 4.98529 11.8433 5.32279 11.8437L7.64206 11.8444L19.437 23.4635L12.385 30.3951C9.59081 29.6527 6.66975 30.1719 4.28628 31.8549C1.74289 33.6508 0.284424 36.4452 0.284424 39.5219C0.284424 40.5536 0.452982 41.5688 0.785595 42.5381C0.891835 42.8485 1.15425 43.0828 1.4786 43.1566C1.80333 43.2307 2.14382 43.1344 2.37845 42.902L6.36229 38.9551H8.28288L10.4711 41.106V42.9938L6.45577 46.9097C6.21926 47.1403 6.12128 47.475 6.19674 47.7941C6.27182 48.113 6.5102 48.3709 6.82592 48.4753C7.81212 48.8022 8.84487 48.9679 9.89451 48.9679C13.0247 48.9679 15.8673 47.534 17.6948 45.034C19.407 42.6913 19.9352 39.8204 19.1799 37.074L24.8437 31.5069L26.1411 32.8921L25.5457 33.477C25.1703 33.846 25.1703 34.4441 25.5457 34.8131C25.9211 35.1818 26.5293 35.1818 26.905 34.8131L27.4441 34.2832L39.6171 47.2801C39.6261 47.2897 39.6355 47.299 39.6449 47.3082C41.8974 49.5222 45.5467 49.5229 47.8003 47.3078C50.0475 45.0979 50.0475 41.502 47.8003 39.292C47.7905 39.2824 47.7804 39.2732 47.7703 39.264L34.527 27.3217L35.06 26.7977C35.4355 26.4291 35.4355 25.831 35.06 25.462C34.6846 25.093 34.0765 25.093 33.7007 25.462L33.1094 26.0435L31.6975 24.7697L37.3887 19.1757C38.1977 19.3882 39.0326 19.496 39.8784 19.496C45.1777 19.496 49.4885 15.2584 49.4885 10.05C49.4885 9.01789 49.3199 8.00314 48.9873 7.03341C48.8811 6.72308 48.6187 6.48877 48.2943 6.41497ZM8.72099 10.2326C8.54079 10.0551 8.2964 9.96474 8.04112 9.96474L5.8675 9.964L2.45654 4.36629L4.11322 2.7379L9.79841 6.09136V8.22786C9.79841 8.47804 9.89939 8.71789 10.0792 8.89501L22.1554 20.7919L20.796 22.1277L8.72099 10.2326ZM33.1665 28.659L46.4548 40.6415C47.9392 42.116 47.9347 44.5034 46.4409 45.9724C44.9438 47.444 42.5202 47.4484 41.017 45.9853L28.8042 32.946L33.1665 28.659ZM31.7489 27.3804L27.5012 31.5549L26.2038 30.1696L30.337 26.1066L31.7489 27.3804ZM39.8784 17.6067C39.0379 17.6067 38.2112 17.4742 37.4221 17.213C37.0764 17.099 36.6942 17.1868 36.4359 17.4403C31.6179 22.176 21.2364 32.38 17.4136 36.1378C17.1553 36.3917 17.0656 36.7673 17.1823 37.1076C17.9812 39.4393 17.599 41.9263 16.1334 43.9318C14.672 45.9314 12.3977 47.0787 9.89451 47.0787C9.61333 47.0787 9.33365 47.0635 9.0566 47.0344L12.109 44.0573C12.2907 43.8802 12.3932 43.6388 12.3932 43.3868V40.7145C12.3932 40.464 12.2919 40.2238 12.1117 40.0466L9.36031 37.3423C9.18011 37.1651 8.93572 37.0655 8.68082 37.0655H5.96211C5.7057 37.0655 5.46019 37.1662 5.27961 37.3448L2.25119 40.3452C2.22116 40.0728 2.20614 39.7979 2.20614 39.5216C2.20614 37.0607 3.37291 34.8257 5.40763 33.3892C7.4476 31.9486 9.97823 31.5726 12.3508 32.3582C12.6966 32.4729 13.0787 32.3847 13.337 32.1309C13.3899 32.0792 32.3458 13.4466 32.3594 13.4333C32.6176 13.1795 32.707 12.8042 32.5906 12.464C31.7914 10.1323 32.1728 7.64595 33.6372 5.64192C35.0998 3.64047 37.3744 2.49288 39.878 2.49288C40.1679 2.49288 40.4558 2.50875 40.7411 2.53974L37.7521 5.52162C37.5749 5.69837 37.4758 5.93638 37.4758 6.18435V8.85664C37.4758 9.10165 37.5723 9.3367 37.7453 9.51272L40.4006 12.2171C40.5816 12.4016 40.8312 12.5057 41.0921 12.5057H43.8108C44.0668 12.5057 44.3124 12.4053 44.4929 12.2263L47.5214 9.22637C47.5514 9.49869 47.5664 9.7736 47.5664 10.05C47.5664 14.2167 44.1175 17.6067 39.8784 17.6067Z" fill="#A3AEB5"/>
<path d="M30.5931 18.4267L18.4169 30.395C18.0372 30.7682 18.0372 31.3738 18.4169 31.7474C18.797 32.121 19.4131 32.121 19.7932 31.7474L31.9694 19.7791C32.3495 19.4059 32.3495 18.8003 31.9694 18.4267C31.5893 18.0531 30.9732 18.0531 30.5931 18.4267Z" fill="#A3AEB5"/>
<path d="M42.8891 43.8333C43.2692 44.2058 43.8854 44.2058 44.2655 43.831C44.6448 43.4571 44.6436 42.8514 44.2632 42.4786L35.4926 33.8854C35.1121 33.5125 34.4956 33.5137 34.1166 33.8876C33.7369 34.262 33.7381 34.8672 34.1185 35.2401L42.8891 43.8333Z" fill="#A3AEB5"/>
</g>
<defs>
<clipPath id="clip0_3005_49708">
<rect width="49.722" height="48.9687" fill="white" transform="translate(0.235596 0.603516)"/>
</clipPath>
</defs>
</svg>
