<svg width="51" height="51" viewBox="0 0 51 51" fill="none" xmlns="http://www.w3.org/2000/svg">
<g clip-path="url(#clip0_3005_49677)">
<path d="M36.8051 14.0896C36.6246 13.9063 36.374 13.8008 36.1186 13.8008C35.8632 13.8008 35.6126 13.9063 35.432 14.0896C35.2514 14.273 35.1475 14.5264 35.1475 14.7866C35.1475 15.0459 35.2513 15.3003 35.432 15.4836C35.6127 15.667 35.8632 15.7725 36.1186 15.7725C36.374 15.7725 36.6246 15.667 36.8051 15.4836C36.9857 15.3003 37.0897 15.0459 37.0897 14.7866C37.0897 14.5273 36.9858 14.273 36.8051 14.0896Z" fill="#A3AEB5"/>
<path d="M14.9479 27.8984H7.1789C6.64264 27.8984 6.20776 28.3398 6.20776 28.8843V36.771C6.20776 37.3155 6.64264 37.7569 7.1789 37.7569H14.9479C15.4842 37.7569 15.9191 37.3155 15.9191 36.771V28.8843C15.9191 28.3398 15.4843 27.8984 14.9479 27.8984ZM13.9768 35.7852H8.15003V29.8701H13.9768V35.7852Z" fill="#A3AEB5"/>
<path d="M49.5033 20.7772C49.1404 20.6245 48.7226 20.7091 48.4449 20.9909L38.5493 31.0365C38.5492 31.0366 38.549 31.0367 38.5488 31.0369C38.5486 31.0371 38.5485 31.0372 38.5484 31.0374L27.0129 42.7477C27.0127 42.7479 27.0127 42.748 27.0125 42.7482C27.0123 42.7484 27.0122 42.7485 27.012 42.7487L20.9619 48.8904C20.6843 49.1724 20.6011 49.5965 20.7514 49.9648C20.9017 50.3332 21.2558 50.5733 21.6486 50.5733H49.1316C49.6679 50.5733 50.1028 50.132 50.1028 49.5875V21.6881C50.1028 21.2894 49.8662 20.9299 49.5033 20.7772ZM48.1605 48.6017H23.9932L27.6991 44.8396L28.6262 45.7807C28.8158 45.9732 29.0644 46.0694 29.3129 46.0694C29.5614 46.0694 29.8099 45.9732 29.9996 45.7807C30.3788 45.3957 30.3788 44.7715 29.9996 44.3864L29.0725 43.4453L31.5446 40.9357L32.4716 41.8767C32.6612 42.0692 32.9097 42.1655 33.1583 42.1655C33.4068 42.1655 33.6553 42.0691 33.8449 41.8767C34.2242 41.4917 34.2242 40.8675 33.8449 40.4825L32.9179 39.5414L35.39 37.0319L36.3171 37.973C36.5067 38.1655 36.7552 38.2617 37.0037 38.2617C37.2523 38.2617 37.5008 38.1655 37.6904 37.973C38.0697 37.588 38.0697 36.9638 37.6904 36.5787L36.7634 35.6376L39.2354 33.1281L40.1625 34.0692C40.3521 34.2617 40.6006 34.358 40.8491 34.358C41.0977 34.358 41.3462 34.2617 41.5358 34.0692C41.9151 33.6842 41.9151 33.06 41.5358 32.6749L40.6088 31.7338L43.0809 29.2243L44.0078 30.1653C44.1975 30.3578 44.446 30.454 44.6945 30.454C44.943 30.454 45.1916 30.3577 45.3812 30.1653C45.7604 29.7803 45.7604 29.156 45.3812 28.7711L44.4542 27.83L48.1605 24.0681V48.6017Z" fill="#A3AEB5"/>
<path d="M44.6477 32.6777C44.2848 32.525 43.867 32.6094 43.5894 32.8913L32.6846 43.9614C32.407 44.2433 32.3237 44.6673 32.4741 45.0357C32.6244 45.4041 32.9785 45.6443 33.3713 45.6443H44.276C44.8123 45.6443 45.2472 45.2029 45.2472 44.6584V33.5885C45.2472 33.1898 45.0106 32.8303 44.6477 32.6777ZM43.3049 43.6726H35.7159L43.3049 35.9685V43.6726Z" fill="#A3AEB5"/>
<path d="M45.3503 14.8125C45.0829 14.5412 44.685 14.4518 44.3296 14.5838L37.6987 17.049C37.5661 17.0982 37.4458 17.1762 37.3458 17.2776L35.4814 19.1703L23.3067 6.81104C23.1245 6.6262 22.8775 6.52229 22.62 6.52229C22.3625 6.52229 22.1154 6.6262 21.9333 6.81104L7.27865 21.6877H3.69682L22.62 2.47776L33.0042 13.0193C33.3835 13.4043 33.9983 13.4043 34.3777 13.0193C34.7569 12.6343 34.7569 12.0101 34.3777 11.625L23.3068 0.386386C22.9275 0.00141309 22.3127 0.00141309 21.9333 0.386386L0.665533 21.9764C0.387887 22.2584 0.304758 22.6824 0.454992 23.0508C0.605323 23.4193 0.959398 23.6594 1.35222 23.6594H2.32335V49.5872C2.32335 50.1317 2.75822 50.573 3.29448 50.573H18.7341C19.2704 50.573 19.7052 50.1317 19.7052 49.5872C19.7052 49.0427 19.2704 48.6013 18.7341 48.6013H4.26561V23.6594H7.68089C7.93843 23.6594 8.18539 23.5555 8.36758 23.3707L22.62 8.90232L34.1079 20.5644L19.7066 35.184V26.3212H26.5045C27.0408 26.3212 27.4757 25.8799 27.4757 25.3354C27.4757 24.7909 27.0408 24.3495 26.5045 24.3495H18.7355C18.1992 24.3495 17.7643 24.7909 17.7643 25.3354V36.7712C17.7643 36.8862 17.7847 36.9961 17.8204 37.0987L16.9503 37.9819C15.413 39.5425 15.413 42.0818 16.9503 43.6424C17.7191 44.4228 18.7286 44.813 19.7384 44.8129C20.7479 44.8129 21.7578 44.4227 22.5264 43.6425L30.7161 35.3287C31.0954 34.9437 31.0954 34.3195 30.7161 33.9345C30.3369 33.5495 29.7222 33.5495 29.3427 33.9345L23.1379 40.2333L20.3087 37.3612L38.052 19.3491L40.8812 22.2212L34.1012 29.104C33.722 29.4889 33.722 30.1132 34.1012 30.4981C34.4805 30.8831 35.0952 30.8831 35.4747 30.4981L42.9219 22.9381C43.0216 22.8368 43.0985 22.7145 43.147 22.58L45.5754 15.8486C45.7054 15.4882 45.6177 15.0839 45.3503 14.8125ZM21.7646 41.6274L21.153 42.2482C20.7751 42.6318 20.2729 42.8431 19.7385 42.8431C19.204 42.8431 18.7017 42.6318 18.3239 42.2482C17.9459 41.8647 17.7379 41.3547 17.7379 40.8123C17.7379 40.2699 17.9458 39.7598 18.3238 39.3762L18.9354 38.7553L21.7646 41.6274ZM41.8568 20.4229L39.8234 18.3587L43.0318 17.166L41.8568 20.4229Z" fill="#A3AEB5"/>
<path d="M33.0778 31.5359C32.8973 31.3526 32.6467 31.2471 32.3913 31.2471C32.1359 31.2471 31.8853 31.3526 31.7047 31.5359C31.5241 31.7203 31.4202 31.9736 31.4202 32.2329C31.4202 32.4932 31.524 32.7465 31.7047 32.9309C31.8853 33.1143 32.1349 33.2188 32.3913 33.2188C32.6467 33.2188 32.8973 33.1143 33.0778 32.9309C33.2584 32.7465 33.3624 32.4922 33.3624 32.2329C33.3624 31.9736 33.2585 31.7203 33.0778 31.5359Z" fill="#A3AEB5"/>
<path d="M22.6197 14.9844C20.5849 14.9844 18.9294 16.6649 18.9294 18.7306C18.9294 20.7962 20.5849 22.4768 22.6197 22.4768C24.6546 22.4768 26.31 20.7962 26.31 18.7306C26.31 16.6649 24.6546 14.9844 22.6197 14.9844ZM22.6197 20.5051C21.6559 20.5051 20.8717 19.7091 20.8717 18.7306C20.8717 17.7521 21.6559 16.9561 22.6197 16.9561C23.5836 16.9561 24.3678 17.7521 24.3678 18.7306C24.3678 19.709 23.5836 20.5051 22.6197 20.5051Z" fill="#A3AEB5"/>
</g>
<defs>
<clipPath id="clip0_3005_49677">
<rect width="49.722" height="50.4754" fill="white" transform="translate(0.380859 0.0976562)"/>
</clipPath>
</defs>
</svg>
