<svg width="27" height="27" viewBox="0 0 27 27" fill="none" xmlns="http://www.w3.org/2000/svg">
<path fill-rule="evenodd" clip-rule="evenodd" d="M5.29077 1.66498C6.21569 1.41713 7.16639 1.96606 7.41424 2.89098C7.66205 3.8159 7.11316 4.76665 6.18824 5.01445C5.26333 5.26225 4.31258 4.71337 4.06477 3.78845C3.81692 2.86348 4.36581 1.91279 5.29077 1.66498ZM18.8937 6.78655C18.3526 6.78655 17.914 7.22513 17.914 7.76621C17.914 8.3073 18.3526 8.74588 18.8937 8.74588C19.4348 8.74588 19.8733 8.3073 19.8733 7.76621C19.8733 7.22508 19.4347 6.78655 18.8937 6.78655ZM24.0092 6.54543C23.8804 6.00394 23.6657 5.48666 23.3739 5.01273L23.8159 4.01736L22.6425 2.84388L21.6468 3.28611C21.173 2.99435 20.6559 2.77972 20.1145 2.65088L19.7234 1.6348H18.0639L17.6728 2.65088C17.1314 2.77972 16.6144 2.9943 16.1405 3.28611L15.1448 2.84388L13.9713 4.01742L14.4135 5.01298C14.1217 5.48681 13.9071 6.00394 13.7782 6.54538L12.7622 6.93646V8.59602L13.7781 8.987C13.9069 9.52849 14.1215 10.0458 14.4134 10.5197L13.9713 11.515L15.1449 12.6885L16.1405 12.2463C16.6144 12.538 17.1314 12.7527 17.6728 12.8815L18.0639 13.8976H19.7235L20.1144 12.8818C20.6559 12.7529 21.1732 12.5383 21.6471 12.2464L22.6425 12.6885L23.8159 11.515L23.3738 10.5193C23.6655 10.0455 23.8802 9.52849 24.0089 8.9871L25.025 8.59602V6.93646L24.0092 6.54543ZM18.8936 11.3604C16.9084 11.3604 15.2994 9.75142 15.2994 7.76621C15.2994 5.781 16.9084 4.17193 18.8936 4.17193C20.8789 4.17193 22.4879 5.78095 22.4879 7.76621C22.4879 9.75142 20.8789 11.3604 18.8936 11.3604ZM1.469 20.9807H4.91621V24.8462H1.469V20.9807ZM10.2181 18.6148C9.06905 18.6148 7.91993 18.6148 6.77086 18.6148V24.8462H10.2181C10.2181 21.2333 10.2181 22.2277 10.2181 18.6148ZM12.0727 16.0974V24.8462H25.7146V12.5349L21.5379 14.385L21.0063 15.7661H16.781L16.2494 14.385C16.1938 14.3628 16.1384 14.3398 16.0833 14.3162L12.0727 16.0974ZM9.95614 6.02471C10.4754 5.78845 11.0879 6.01792 11.3242 6.53723C11.5604 7.05653 11.3309 7.66908 10.8116 7.90533L8.5661 8.93007C8.29632 9.05278 8.00141 9.0498 7.74713 8.94582L6.37198 8.41315L6.3339 10.6042L8.80377 11.7546C9.16927 11.9244 9.38862 12.2807 9.40133 12.6577L9.52292 16.5099C9.54171 17.0805 9.09437 17.5584 8.52376 17.5772C7.95315 17.596 7.47532 17.1486 7.45648 16.578L7.35514 13.3598L6.30468 12.8706L6.30133 13.1326C6.2987 13.3583 6.22385 13.5662 6.09906 13.7347L3.28916 17.8387C2.96665 18.3089 2.32398 18.4286 1.85379 18.1061C1.38361 17.7837 1.26389 17.141 1.58639 16.6708L4.23935 12.796C4.26345 10.9287 4.30108 8.76821 4.32519 6.9009C4.32666 6.78027 4.3493 6.65786 4.39558 6.5388C4.60226 6.00718 5.20078 5.74373 5.73239 5.95036L8.10518 6.86945L9.95614 6.02471Z" fill="#23333F"/>
</svg>
