<svg width="50" height="50" viewBox="0 0 50 50" fill="none" xmlns="http://www.w3.org/2000/svg">
<g clip-path="url(#clip0_3113_2103)">
<path d="M34.0326 15.4424C33.4955 15.4424 33.0596 15.8698 33.0596 16.3984C33.0596 16.9267 33.4955 17.3548 34.0326 17.3548C34.5708 17.3548 35.0056 16.9267 35.0056 16.3984C35.0056 15.8698 34.5708 15.4424 34.0326 15.4424Z" fill="#23333F"/>
<path d="M16.3529 32.8193C15.8147 32.8193 15.3799 33.2479 15.3799 33.7758C15.3799 34.3048 15.8147 34.7322 16.3529 34.7322C16.89 34.7322 17.326 34.3048 17.326 33.7758C17.326 33.2479 16.89 32.8193 16.3529 32.8193Z" fill="#23333F"/>
<path d="M48.2941 6.41497C47.9697 6.3408 47.6289 6.43711 47.3946 6.66958L43.4104 10.6168H41.5003L39.3976 8.47546V6.57179L43.3248 2.65413C43.5572 2.4224 43.6518 2.0892 43.5748 1.77223C43.4982 1.45562 43.261 1.20028 42.9471 1.09622C41.9606 0.769286 40.9282 0.603605 39.8782 0.603605C36.748 0.603605 33.9043 2.03827 32.076 4.53972C30.3649 6.88138 29.8375 9.75109 30.5932 12.4975L23.5141 19.4558L11.7203 7.83672V5.55631C11.7203 5.22458 11.5431 4.91683 11.2536 4.74636L4.45835 0.73829C4.07994 0.515045 3.59604 0.573716 3.28445 0.880355L0.566487 3.55154C0.254898 3.85818 0.195208 4.33382 0.421955 4.70577L4.49889 11.385C4.67233 11.6695 4.98505 11.8433 5.32254 11.8437L7.64182 11.8444L19.4368 23.4635L12.3847 30.3951C9.59056 29.6527 6.66951 30.1719 4.28604 31.8549C1.74264 33.6508 0.28418 36.4452 0.28418 39.5219C0.28418 40.5536 0.452738 41.5688 0.785351 42.5381C0.891591 42.8485 1.154 43.0828 1.47836 43.1566C1.80308 43.2307 2.14358 43.1344 2.37821 42.902L6.36205 38.9551H8.28264L10.4709 41.106V42.9938L6.45552 46.9097C6.21902 47.1403 6.12104 47.475 6.19649 47.7941C6.27157 48.113 6.50996 48.3709 6.82568 48.4753C7.81188 48.8022 8.84463 48.9679 9.89427 48.9679C13.0244 48.9679 15.867 47.534 17.6945 45.034C19.4068 42.6913 19.935 39.8204 19.1796 37.074L24.8434 31.5069L26.1408 32.8921L25.5454 33.477C25.17 33.846 25.17 34.4441 25.5454 34.8131C25.9208 35.1818 26.529 35.1818 26.9048 34.8131L27.4439 34.2832L39.6169 47.2801C39.6259 47.2897 39.6353 47.299 39.6447 47.3082C41.8971 49.5222 45.5465 49.5229 47.8 47.3078C50.0472 45.0979 50.0472 41.502 47.8 39.292C47.7903 39.2824 47.7802 39.2732 47.77 39.264L34.5267 27.3217L35.0598 26.7977C35.4352 26.4291 35.4352 25.831 35.0598 25.462C34.6844 25.093 34.0762 25.093 33.7004 25.462L33.1092 26.0435L31.6973 24.7697L37.3885 19.1757C38.1975 19.3882 39.0324 19.496 39.8782 19.496C45.1774 19.496 49.4883 15.2584 49.4883 10.05C49.4883 9.01789 49.3197 8.00314 48.9871 7.03341C48.8808 6.72308 48.6184 6.48877 48.2941 6.41497ZM8.72074 10.2326C8.54055 10.0551 8.29615 9.96474 8.04088 9.96474L5.86726 9.964L2.4563 4.36629L4.11297 2.7379L9.79816 6.09136V8.22786C9.79816 8.47804 9.89915 8.71789 10.079 8.89501L22.1551 20.7919L20.7958 22.1277L8.72074 10.2326ZM33.1662 28.659L46.4546 40.6415C47.9389 42.116 47.9344 44.5034 46.4407 45.9724C44.9436 47.444 42.5199 47.4484 41.0168 45.9853L28.804 32.946L33.1662 28.659ZM31.7487 27.3804L27.5009 31.5549L26.2035 30.1696L30.3368 26.1066L31.7487 27.3804ZM39.8782 17.6067C39.0376 17.6067 38.211 17.4742 37.4219 17.213C37.0761 17.099 36.694 17.1868 36.4357 17.4403C31.6177 22.176 21.2361 32.38 17.4133 36.1378C17.1551 36.3917 17.0653 36.7673 17.1821 37.1076C17.9809 39.4393 17.5988 41.9263 16.1332 43.9318C14.6717 45.9314 12.3975 47.0787 9.89427 47.0787C9.61309 47.0787 9.33341 47.0635 9.05636 47.0344L12.1088 44.0573C12.2905 43.8802 12.393 43.6388 12.393 43.3868V40.7145C12.393 40.464 12.2916 40.2238 12.1114 40.0466L9.36006 37.3423C9.17987 37.1651 8.93548 37.0655 8.68057 37.0655H5.96186C5.70546 37.0655 5.45994 37.1662 5.27937 37.3448L2.25095 40.3452C2.22091 40.0728 2.2059 39.7979 2.2059 39.5216C2.2059 37.0607 3.37267 34.8257 5.40738 33.3892C7.44735 31.9486 9.97799 31.5726 12.3506 32.3582C12.6963 32.4729 13.0785 32.3847 13.3368 32.1309C13.3897 32.0792 32.3456 13.4466 32.3591 13.4333C32.6174 13.1795 32.7067 12.8042 32.5904 12.464C31.7911 10.1323 32.1725 7.64595 33.637 5.64192C35.0996 3.64047 37.3742 2.49288 39.8778 2.49288C40.1676 2.49288 40.4555 2.50875 40.7409 2.53974L37.7519 5.52162C37.5747 5.69837 37.4756 5.93638 37.4756 6.18435V8.85664C37.4756 9.10165 37.572 9.3367 37.7451 9.51272L40.4004 12.2171C40.5813 12.4016 40.831 12.5057 41.0919 12.5057H43.8106C44.0666 12.5057 44.3121 12.4053 44.4927 12.2263L47.5211 9.22637C47.5512 9.49869 47.5662 9.7736 47.5662 10.05C47.5662 14.2167 44.1173 17.6067 39.8782 17.6067Z" fill="#23333F"/>
<path d="M30.5928 18.4267L18.4166 30.395C18.0369 30.7682 18.0369 31.3738 18.4166 31.7474C18.7967 32.121 19.4128 32.121 19.7929 31.7474L31.9692 19.7791C32.3492 19.4059 32.3492 18.8003 31.9692 18.4267C31.5891 18.0531 30.9729 18.0531 30.5928 18.4267Z" fill="#23333F"/>
<path d="M42.8887 43.8333C43.2687 44.2058 43.8849 44.2058 44.265 43.831C44.6443 43.4571 44.6432 42.8514 44.2627 42.4786L35.4921 33.8854C35.1116 33.5125 34.4951 33.5137 34.1162 33.8876C33.7364 34.262 33.7376 34.8672 34.1181 35.2401L42.8887 43.8333Z" fill="#23333F"/>
</g>
<defs>
<clipPath id="clip0_3113_2103">
<rect width="49.722" height="48.9687" fill="white" transform="translate(0.235352 0.603516)"/>
</clipPath>
</defs>
</svg>
