<svg width="230" height="230" viewBox="0 0 230 230" fill="none" xmlns="http://www.w3.org/2000/svg">
<path d="M127.713 139.151V123.233C141.157 120.734 152.892 113.316 160.975 102.921C161.202 102.966 161.433 102.997 161.67 102.997H172.871C174.358 102.997 175.69 102.081 176.225 100.694L178.204 95.5517C180.939 94.7561 183.573 93.6641 186.072 92.2899L191.112 94.5279C192.471 95.1317 194.061 94.8352 195.112 93.7845L203.031 85.8647C204.082 84.8136 204.377 83.2238 203.774 81.8649L201.535 76.8238C202.909 74.3247 204.001 71.6914 204.796 68.9584L209.94 66.9782C211.327 66.4445 212.243 65.1113 212.243 63.6244V52.4244C212.243 50.9375 211.327 49.6047 209.94 49.0706L204.798 47.0913C204.003 44.3565 202.91 41.7218 201.536 39.2228L203.774 34.1835C204.377 32.825 204.082 31.2348 203.03 30.1836L195.111 22.2643C194.059 21.2132 192.471 20.9176 191.111 21.5213L186.07 23.7602C183.571 22.3861 180.937 21.294 178.204 20.4989L176.224 15.3545C175.69 13.9673 174.357 13.0518 172.87 13.0518H161.67C160.183 13.0518 158.851 13.9673 158.316 15.3545L156.336 20.4989C153.54 21.3124 150.85 22.4413 148.299 23.8604C139.548 17.9451 129.005 14.4875 117.669 14.4875C101.391 14.4875 86.7488 21.6202 76.6975 32.9216L75.6018 30.0749C75.0682 28.6877 73.7349 27.7722 72.248 27.7722H61.048C59.5611 27.7722 58.2283 28.6877 57.6942 30.0749L55.7145 35.2189C52.981 36.0145 50.3477 37.1061 47.8491 38.4802L42.8075 36.2413C41.4486 35.6376 39.8593 35.9327 38.8077 36.9848L30.8884 44.9041C29.8368 45.9552 29.5416 47.545 30.1449 48.9039L32.3834 53.9446C31.0088 56.4436 29.9172 59.0774 29.1216 61.8113L23.9785 63.791C22.5913 64.3247 21.6758 65.658 21.6758 67.1449V78.3448C21.6758 79.8317 22.5913 81.1646 23.9785 81.6987L29.1212 83.6784C29.9167 86.4137 31.0088 89.0483 32.383 91.5469L30.1449 96.5858C29.5416 97.9447 29.8368 99.5345 30.8884 100.586L38.8077 108.505C39.8593 109.556 41.4486 109.852 42.8075 109.248L47.8491 107.009C50.3477 108.383 52.9814 109.475 55.7149 110.27L57.6946 115.414C58.2283 116.802 59.5616 117.717 61.0485 117.717H72.2484C73.7353 117.717 75.0682 116.802 75.6023 115.414L77.582 110.272C78.4863 110.008 79.3811 109.709 80.2652 109.38C87.7415 116.366 97.167 121.289 107.628 123.233V139.14C106.636 139.536 105.718 140.126 104.928 140.893C103.344 142.43 102.453 144.488 102.42 146.687L101.831 185.892C101.763 190.442 105.409 194.199 109.958 194.267L124.545 194.487C124.587 194.487 124.629 194.488 124.671 194.488C129.163 194.488 132.851 190.867 132.92 186.359L133.509 147.155C133.543 144.956 132.714 142.872 131.176 141.288C130.199 140.279 129.012 139.556 127.713 139.151ZM159.864 26.9991C161.016 26.7246 161.96 25.8999 162.385 24.7939L164.138 20.2393H170.403L172.156 24.7939C172.581 25.8994 173.525 26.7246 174.677 26.9991C177.96 27.7803 181.085 29.0758 183.966 30.8498C184.975 31.4715 186.226 31.5546 187.309 31.0744L191.773 29.0916L196.203 33.5213L194.221 37.9838C193.74 39.0669 193.824 40.318 194.445 41.3269C196.22 44.2082 197.516 47.3339 198.297 50.6177C198.571 51.7704 199.396 52.7142 200.502 53.1396L205.055 54.892V61.1568L200.5 62.9097C199.394 63.3351 198.569 64.2784 198.295 65.4316C197.514 68.7131 196.218 71.8379 194.444 74.7201C193.823 75.7295 193.739 76.9801 194.22 78.0631L196.203 82.5275L191.773 86.9572L187.31 84.9753C186.228 84.4951 184.977 84.5777 183.967 85.1999C181.087 86.9743 177.961 88.2698 174.677 89.0515C173.524 89.326 172.581 90.1507 172.155 91.2567L170.403 95.8091H165.669C168.237 91.1722 170.153 86.1266 171.293 80.7957C182.209 78.8884 190.396 69.3905 190.396 58.0244C190.396 45.2729 180.022 34.8986 167.27 34.8986C165.129 34.8986 163.033 35.1937 161.005 35.7643C159.057 33.254 156.898 30.9154 154.551 28.7789C156.264 28.0328 158.038 27.4335 159.864 26.9991ZM165.318 42.2083C165.962 42.1301 166.613 42.0861 167.271 42.0861C176.059 42.0861 183.209 49.2363 183.209 58.0244C183.209 65.0277 178.7 71.0019 172.37 73.1294C172.457 71.8711 172.505 70.6025 172.505 69.3227C172.505 59.4664 169.889 50.2098 165.318 42.2083ZM74.0552 103.771C72.9025 104.045 71.9587 104.87 71.5333 105.976L69.7809 110.529H63.5165L61.7637 105.974C61.3382 104.868 60.3944 104.044 59.2422 103.769C55.9602 102.988 52.835 101.692 49.9532 99.9185C48.9434 99.2968 47.6928 99.2133 46.6106 99.6944L42.1463 101.677L37.7165 97.2475L39.6985 92.7854C40.1791 91.7019 40.0956 90.4512 39.4739 89.4419C37.7004 86.5619 36.4044 83.4358 35.6223 80.1507C35.3482 78.998 34.523 78.0546 33.4175 77.6292L28.8647 75.8768V69.612L33.4184 67.8591C34.5244 67.4337 35.3491 66.4899 35.6232 65.3372C36.4044 62.0548 37.7004 58.9296 39.4743 56.0483C40.096 55.0389 40.1796 53.7883 39.6989 52.7052L37.7165 48.2413L42.1463 43.8111L46.6106 45.794C47.6928 46.2742 48.9443 46.1911 49.9532 45.5694C52.8341 43.7954 55.9593 42.4998 59.2417 41.7187C60.394 41.4442 61.3378 40.6194 61.7632 39.5134L63.5165 34.9588H69.7809L71.5337 39.513C71.5494 39.5543 71.571 39.5921 71.5881 39.6325C69.5666 42.759 67.8564 46.1035 66.4975 49.6218C53.8152 49.7035 43.5222 60.0427 43.5222 72.7439C43.5222 85.4955 53.8965 95.8697 66.648 95.8697C67.6372 95.8697 68.6228 95.8064 69.5985 95.682C71.1294 98.4626 72.8953 101.096 74.8678 103.557C74.5974 103.63 74.3274 103.706 74.0552 103.771ZM66.365 88.6755C57.7072 88.5232 50.7097 81.4377 50.7097 72.7444C50.7097 64.7766 56.5869 58.1556 64.2335 56.9885C63.3184 60.9542 62.8346 65.083 62.8346 69.3227C62.8346 76.1324 64.0861 82.6542 66.365 88.6755ZM70.0221 69.3227C70.0221 43.0497 91.3968 21.6754 117.669 21.6754C143.942 21.6754 165.317 43.0501 165.317 69.3227C165.317 95.5953 143.942 116.97 117.67 116.97C91.3973 116.97 70.0221 95.5957 70.0221 69.3227ZM117.67 124.157C118.628 124.157 119.579 124.132 120.525 124.084V138.705L114.815 138.619V124.083C115.76 124.132 116.712 124.157 117.67 124.157ZM125.733 186.249C125.724 186.822 125.238 187.299 124.668 187.299C124.663 187.299 124.658 187.299 124.652 187.299L110.065 187.08C109.488 187.071 109.008 186.576 109.017 185.999L109.606 146.794C109.612 146.417 109.814 146.166 109.934 146.05C110.052 145.935 110.303 145.745 110.671 145.745H110.687L125.275 145.964C125.651 145.97 125.902 146.172 126.018 146.292C126.134 146.411 126.328 146.668 126.323 147.045L125.733 186.249ZM158.058 69.3227C158.058 47.0527 139.94 28.9348 117.67 28.9348C95.3998 28.9348 77.2819 47.0527 77.2819 69.3227C77.2819 91.5923 95.3998 109.71 117.67 109.71C139.94 109.71 158.058 91.5923 158.058 69.3227ZM147.561 54.8826C149.513 58.9071 150.668 63.3845 150.839 68.1089C148.551 65.3103 147.242 61.7709 147.242 58.0244C147.242 56.9597 147.356 55.9099 147.561 54.8826ZM142.613 47.4466C140.934 50.703 140.054 54.3112 140.054 58.0244C140.054 65.6584 143.793 72.7058 149.964 77.0012C149.262 79.953 148.17 82.7543 146.737 85.3445C146.653 85.2942 146.567 85.2493 146.484 85.1985C145.475 84.5768 144.224 84.4942 143.142 84.9744L138.678 86.9572L134.248 82.527L136.23 78.0649C136.71 76.9814 136.627 75.7308 136.005 74.7214C134.232 71.8415 132.936 68.7154 132.154 65.4302C131.88 64.2775 131.054 63.3342 129.949 62.9087L125.396 61.1563V54.8915L129.95 53.1387C131.056 52.7133 131.881 51.7695 132.155 50.6168C132.915 47.4246 134.165 44.3839 135.863 41.5704C138.37 43.2199 140.639 45.1992 142.613 47.4466ZM128.321 37.885L128.916 39.2246C127.541 41.7231 126.45 44.3569 125.654 47.0913L120.511 49.071C119.124 49.6047 118.208 50.938 118.208 52.4249V63.6248C118.208 65.1117 119.124 66.4446 120.511 66.9787L125.653 68.9579C126.449 71.6932 127.541 74.3279 128.915 76.8264L126.677 81.8653C126.074 83.2242 126.369 84.814 127.421 85.8652L135.34 93.7845C136.029 94.4731 136.948 94.8374 137.882 94.837C138.314 94.837 138.749 94.7539 139.167 94.5939C133.37 99.5327 125.864 102.523 117.67 102.523C114.329 102.523 111.104 102.022 108.06 101.1C108.525 100.16 108.569 99.0444 108.128 98.0507L105.889 93.0091C107.263 90.5101 108.354 87.8768 109.15 85.1437L114.294 83.1636C115.681 82.6299 116.597 81.2966 116.597 79.8097V68.6093C116.597 67.1224 115.681 65.7896 114.294 65.2555L109.152 63.2762C108.356 60.5414 107.264 57.9072 105.89 55.4077L108.128 50.3684C108.731 49.0099 108.436 47.4197 107.384 46.3685L101.409 40.3935C106.219 37.6788 111.764 36.1218 117.67 36.1218C121.395 36.1223 124.975 36.748 128.321 37.885ZM86.3481 80.3164C85.1361 76.8732 84.469 73.1752 84.469 69.3227C84.469 67.9108 84.5678 66.5223 84.7399 65.1566C86.5529 67.7832 87.5623 70.9291 87.5623 74.2097C87.5623 76.3346 87.1423 78.4023 86.3481 80.3164ZM90.2113 87.9626C93.1515 83.9996 94.7502 79.2122 94.7502 74.2097C94.7502 67.5213 91.8627 61.2183 86.9082 56.8537C88.8206 52.1527 91.776 47.9839 95.4919 44.6413L100.557 49.7062L98.5749 54.1688C98.0942 55.2518 98.1778 56.5024 98.7995 57.5118C100.574 60.3936 101.87 63.5192 102.651 66.8026C102.925 67.9553 103.75 68.8991 104.856 69.3245L109.409 71.0769V77.3417L104.854 79.0946C103.749 79.52 102.923 80.4633 102.649 81.6165C101.868 84.898 100.573 88.0228 98.7982 90.905C98.1769 91.9144 98.0933 93.165 98.574 94.2476L99.9697 97.3899C96.1082 94.9466 92.7804 91.7347 90.2113 87.9626ZM58.5967 178.499C63.1598 174.941 66.3286 169.679 67.1408 163.676H70.147C72.1316 163.676 73.7407 162.067 73.7407 160.082C73.7407 158.098 72.1316 156.489 70.147 156.489H70.0953V154.794C70.0953 144.494 63.9662 135.362 54.6305 131.408C54.3785 130.698 54.0106 130.031 53.5147 129.427C51.8436 127.389 48.9564 126.217 44.9328 125.943C44.7697 125.932 44.6071 125.932 44.444 125.943C40.4199 126.217 37.5323 127.39 35.8617 129.427C35.3658 130.031 34.9974 130.698 34.7458 131.408C25.4106 135.363 19.2815 144.494 19.2815 154.794V156.489H19.2298C17.2452 156.489 15.6361 158.098 15.6361 160.082C15.6361 162.067 17.2452 163.676 19.2298 163.676H22.2311C22.8703 168.464 25.0104 172.9 28.4469 176.432C29.1769 177.183 29.9527 177.871 30.7626 178.505C16.2052 183.691 5.34537 196.797 3.61498 212.972C3.50627 213.986 3.8333 214.998 4.51522 215.756C5.19713 216.515 6.16879 216.948 7.18807 216.948L82.1887 216.947C83.2085 216.947 84.1801 216.514 84.8616 215.755C85.5435 214.997 85.8705 213.985 85.7618 212.971C84.0296 196.79 73.1626 183.681 58.5967 178.499ZM44.688 133.132C46.4673 133.279 47.4291 133.654 47.8046 133.877L46.7409 142.068H42.6355L41.5713 133.877C41.9464 133.654 42.9081 133.279 44.688 133.132ZM26.4681 154.794C26.4681 148.381 29.7797 142.6 35.0315 139.331L35.9138 146.124C36.147 147.915 37.6721 149.255 39.4779 149.255H49.8975C51.7034 149.255 53.229 147.915 53.4616 146.124L54.3439 139.331C59.5957 142.6 62.9074 148.381 62.9074 154.793V156.488H26.4681V154.794ZM33.5981 171.421C31.4845 169.248 30.091 166.575 29.5147 163.676H59.8608C58.4399 170.754 52.1773 176.102 44.688 176.102C40.4729 176.102 36.5346 174.439 33.5981 171.421ZM11.422 209.761C14.9092 194.418 28.5659 183.289 44.688 183.289C60.8091 183.289 74.4662 194.418 77.9535 209.76L11.422 209.761ZM224.61 92.4269L214.584 86.6383C213.134 85.8014 211.299 86.0763 210.158 87.3013L198.09 100.258C197.549 100.839 197.216 101.584 197.142 102.374L196.335 111.061L170.588 155.654C169.306 155.248 167.932 155.209 166.598 155.567C164.756 156.061 163.219 157.239 162.269 158.884L138.427 200.18C137.434 201.898 138.023 204.096 139.742 205.089L159.449 216.467C160.001 216.785 160.621 216.949 161.246 216.949C161.558 216.949 161.871 216.908 162.176 216.826C163.097 216.58 163.882 215.977 164.358 215.152L188.2 173.856C189.15 172.211 189.402 170.29 188.908 168.448C188.551 167.114 187.83 165.944 186.837 165.037L212.583 120.444L219.703 115.402C220.351 114.943 220.829 114.281 221.062 113.522L226.248 96.5925C226.739 94.9915 226.059 93.2643 224.61 92.4269ZM159.931 208.445L146.448 200.661L168.463 162.529L181.947 170.313L159.931 208.445ZM214.549 110.244L207.788 115.032C207.365 115.332 207.011 115.719 206.753 116.168L180.699 161.294L176.898 159.1L202.951 113.974C203.211 113.525 203.37 113.025 203.418 112.509L204.184 104.26L213.467 94.2934L218.538 97.2214L214.549 110.244Z" fill="#23333F"/>
</svg>
