<svg width="55" height="61" viewBox="0 0 55 61" fill="none" xmlns="http://www.w3.org/2000/svg">
<path d="M52.1958 21.842C54.5147 20.5033 55.3079 17.5433 53.9691 15.2242C52.6304 12.9054 49.6704 12.112 47.3512 13.451C46.8672 13.7304 46.443 14.0843 46.0901 14.4966L32.3397 6.55781C32.5187 6.05267 32.617 5.50984 32.617 4.94421C32.617 2.27294 30.4437 0.0996094 27.7724 0.0996094C25.1012 0.0996094 22.9278 2.27294 22.9278 4.94421C22.9278 5.50984 23.0263 6.05267 23.2052 6.55781L9.45478 14.4966C9.10171 14.0843 8.67763 13.7304 8.19365 13.4511C5.88029 12.1153 2.91162 12.9107 1.57581 15.2242C0.240116 17.5377 1.03581 20.5065 3.34917 21.8419C3.83315 22.1214 4.35176 22.3107 4.88526 22.4103V38.2861C4.35164 38.3858 3.83315 38.5761 3.34917 38.8556C1.03581 40.1911 0.240234 43.1598 1.57581 45.4734C2.91185 47.7875 5.881 48.582 8.19376 47.2466C8.67775 46.9672 9.10183 46.6133 9.4549 46.2011L23.2053 54.1399C23.0263 54.6449 22.928 55.1879 22.928 55.7535C22.928 58.4248 25.1013 60.5981 27.7726 60.5981C30.4438 60.5981 32.6172 58.4248 32.6172 55.7535C32.6172 55.1879 32.5187 54.6449 32.3398 54.1399L46.0888 46.2017C46.4116 46.5756 46.7969 46.9078 47.243 47.1808C47.66 47.4362 48.2058 47.3052 48.4615 46.8878C48.717 46.4703 48.5859 45.9248 48.1684 45.6692C46.7615 44.8078 46.262 42.9888 47.1129 41.515C47.9675 40.0348 49.8495 39.5475 51.3096 40.3905C52.0204 40.8008 52.5286 41.4632 52.741 42.2559C53.1078 43.6251 52.4902 44.9919 51.3792 45.671C50.9616 45.9263 50.83 46.4717 51.0852 46.8893C51.3406 47.307 51.886 47.4384 52.3036 47.1833C54.0676 46.1051 55.029 43.946 54.453 41.7972C54.1182 40.5473 53.3166 39.5026 52.1958 38.8556C51.7118 38.5761 51.1933 38.3858 50.6597 38.2861V22.4103C51.1932 22.3107 51.7118 22.1214 52.1958 21.842ZM48.2374 14.9859C49.7102 14.1357 51.5858 14.641 52.4342 16.1104C53.2831 17.5808 52.7804 19.458 51.3096 20.3071C49.8493 21.1501 47.9677 20.6629 47.1129 19.1826C46.2587 17.7031 46.7766 15.8292 48.2374 14.9859ZM27.7724 1.87202C29.4665 1.87202 30.8446 3.25025 30.8446 4.94421C30.8446 6.63816 29.4665 8.01639 27.7724 8.01639C26.0784 8.01639 24.7003 6.63816 24.7003 4.94421C24.7003 3.25025 26.0784 1.87202 27.7724 1.87202ZM3.11072 16.1104C3.95793 14.643 5.84083 14.1391 7.30756 14.9859C8.76767 15.8288 9.28652 17.7025 8.43209 19.1826C7.57625 20.6649 5.69348 21.1489 4.23537 20.3071C2.76829 19.4602 2.26374 17.5775 3.11072 16.1104ZM7.30756 45.7117C5.84047 46.5586 3.95781 46.0543 3.11072 44.5873C2.26374 43.1201 2.76829 41.2376 4.23537 40.3906C5.69182 39.5499 7.57554 40.0317 8.43209 41.5151C9.28616 42.9944 8.76814 44.8685 7.30756 45.7117ZM27.7724 58.8256C26.0784 58.8256 24.7003 57.4473 24.7003 55.7534C24.7003 54.0594 26.0784 52.6812 27.7724 52.6812C29.4665 52.6812 30.8446 54.0594 30.8446 55.7534C30.8446 57.4473 29.4665 58.8256 27.7724 58.8256ZM45.578 40.6288C44.8359 41.914 44.7402 43.3835 45.1969 44.67L31.451 52.6062C30.5619 51.5684 29.2432 50.9088 27.7724 50.9088C26.3017 50.9088 24.983 51.5684 24.0939 52.6063L10.3383 44.6646C10.8212 43.2894 10.667 41.8415 9.96689 40.6289C9.31984 39.5083 8.27518 38.7066 7.02515 38.3717C6.90309 38.339 6.78044 38.3126 6.65755 38.2896V22.4082C8.08423 22.1404 9.26442 21.2854 9.96689 20.0688C10.6673 18.8556 10.8208 17.4077 10.3383 16.0331L24.0939 8.09142C24.983 9.12923 26.3018 9.7888 27.7724 9.7888C29.2431 9.7888 30.5617 9.12923 31.451 8.09142L45.2066 16.0331C44.7252 17.4019 44.8753 18.8517 45.578 20.0688C46.2823 21.2888 47.4643 22.1411 48.8873 22.4082V38.2893C47.4606 38.5571 46.2804 39.4121 45.578 40.6288Z" fill="#23333F"/>
<path d="M41.328 21.0827L29.0204 13.9769C28.2506 13.5324 27.2945 13.5324 26.5244 13.9769L14.2168 21.0828C13.4519 21.5246 12.9688 22.3457 12.9688 23.2444V37.4559C12.9688 38.3481 13.4527 39.1762 14.2168 39.6175C14.6586 39.8726 26.0226 46.4335 26.5243 46.7232C27.3073 47.1754 28.2668 47.1584 29.0203 46.7232L41.3278 39.6175C42.0978 39.173 42.5759 38.3448 42.5759 37.4559V33.582C42.5759 33.0925 42.1792 32.6958 41.6897 32.6958C41.2001 32.6958 40.8034 33.0925 40.8034 33.582V37.4559C40.8034 37.7136 40.6647 37.9537 40.4416 38.0826L28.6585 44.8856V30.8224C28.7836 30.7752 28.9061 30.7188 29.0239 30.6509L32.11 28.8691V33.2722C32.11 34.283 33.2079 34.9017 34.07 34.4038L36.8982 32.771C37.4175 32.4711 37.7401 31.9124 37.7401 31.3127V25.6186L40.8036 23.85V29.4465C40.8036 29.9359 41.2002 30.3327 41.6898 30.3327C42.1793 30.3327 42.576 29.9359 42.576 29.4465V23.2444C42.5761 22.3432 42.0876 21.5209 41.328 21.0827ZM32.9982 26.3098L20.869 19.2888L22.9528 18.0856L35.0821 25.1065C34.2105 25.6098 34.7269 25.3118 32.9982 26.3098ZM26.5209 30.6509C26.639 30.719 26.7989 30.7909 26.8863 30.824V44.8856L15.1031 38.0825C14.8795 37.9533 14.7413 37.713 14.7413 37.4558V23.8499L26.5209 30.6509ZM28.1378 29.116C27.9123 29.2462 27.6316 29.2456 27.407 29.116L15.6275 22.315L19.0978 20.3114L31.227 27.3324L28.1378 29.116ZM35.9678 26.6419V31.2615L33.8826 32.4653V27.8457L35.9303 26.6635L35.9678 26.6419ZM36.8534 24.084L24.7241 17.063L27.4105 15.512C27.6339 15.3832 27.911 15.3832 28.1342 15.512L39.9175 22.3151L36.8534 24.084Z" fill="#23333F"/>
</svg>
